<?xml version="1.0" encoding="UTF-8"?>
<svg version="1.1" xmlns="http://www.w3.org/2000/svg" width="1023" height="854">
<path d="M0 0 C0.94037109 0.25475098 1.88074219 0.50950195 2.84960938 0.77197266 C36.51884734 10.0630513 69.30976684 24.588928 99 43 C99.7204248 43.44408203 100.44084961 43.88816406 101.18310547 44.34570312 C111.2117867 50.56746921 120.76057983 57.31709035 130.09765625 64.53125 C131.94395842 65.95673176 133.79939433 67.36955843 135.65625 68.78125 C143.24798417 74.59803589 150.3392211 80.80396154 157.27880859 87.38037109 C159.11591572 89.10907587 160.97179591 90.81575125 162.83203125 92.51953125 C169.94502619 99.05151203 176.66470395 105.69851016 183 113 C183.68835938 113.73863281 184.37671875 114.47726563 185.0859375 115.23828125 C199.40750407 130.61974715 211.569108 148.40244257 223 166 C252.68110774 149.53739538 281.45352779 129.91453088 307.1875 107.75 C311.14262255 104.35746206 315.15419473 101.08101683 319.29370117 97.91601562 C325.81392703 92.9266254 331.6312601 87.57818394 337.34765625 81.69140625 C339.44155984 79.56666461 341.53361078 77.60372728 343.8125 75.6875 C352.67768356 68.1260199 361.04234818 59.57095039 368.546875 50.6640625 C370.03366467 48.96144852 371.61053957 47.4301891 373.25 45.875 C377.20098373 42.00392381 380.48393328 37.65452802 383.85766602 33.28613281 C387.69746895 28.32974422 391.74587446 23.60762021 396 19 C397.36035777 22.69348232 396.6256592 24.75805669 395.18359375 28.34765625 C394.54296997 29.94722168 394.54296997 29.94722168 393.8894043 31.57910156 C393.41027588 32.72862305 392.93114746 33.87814453 392.4375 35.0625 C391.9422583 36.2597168 391.4470166 37.45693359 390.93676758 38.69042969 C379.21869207 66.62669648 363.92077136 92.93349998 345.53515625 116.98583984 C344.15352391 118.79857312 342.79036064 120.6227813 341.4375 122.45703125 C334.56496554 131.75165685 327.23199312 140.62226194 319.6875 149.375 C319.20313477 149.93872314 318.71876953 150.50244629 318.21972656 151.08325195 C307.9652923 162.90351264 297.08454703 174.07718241 286.0078125 185.12255859 C283.73580631 187.38915993 281.46925556 189.66111959 279.203125 191.93359375 C277.73469583 193.40136271 276.2659568 194.86882176 274.796875 196.3359375 C273.79971466 197.33613419 273.79971466 197.33613419 272.78240967 198.35653687 C268.34869751 202.76845849 263.74672564 206.92814135 259 211 C258.1646875 211.73089844 257.329375 212.46179688 256.46875 213.21484375 C253.734375 215.60742188 253.734375 215.60742188 251 218 C252.63657113 223.72611783 254.44788811 229.31541461 256.60009766 234.86767578 C265.27570435 257.47003012 271.54832958 281.0033563 275.5 304.875 C275.61796936 305.58029846 275.73593872 306.28559692 275.85748291 307.01226807 C279.18727873 327.26956522 280.38589067 347.48700705 280.3125 368 C280.30976578 369.5992482 280.30976578 369.5992482 280.30697632 371.23080444 C280.25702578 388.66451712 279.54557336 405.72953605 277 423 C276.83902832 424.12921875 276.67805664 425.2584375 276.51220703 426.421875 C267.7241886 486.1229954 244.03815047 544.57693978 208 593 C207.18716553 594.09683105 207.18716553 594.09683105 206.35791016 595.21582031 C199.93756538 603.84461459 193.33682634 612.12455744 186 620 C184.8696848 621.28701799 183.74451699 622.5785782 182.625 623.875 C181.41864132 625.25173279 180.21010946 626.62656288 179 628 C177.85337891 629.30517578 177.85337891 629.30517578 176.68359375 630.63671875 C168.93755825 639.28318759 160.60347984 647.21214709 152 655 C151.41347656 655.53125488 150.82695313 656.06250977 150.22265625 656.60986328 C81.87368616 717.99371026 -9.78472856 750.59714596 -101.0625 750.3125 C-102.2764444 750.31067719 -103.49038879 750.30885437 -104.74111938 750.30697632 C-122.36375447 750.26241864 -139.57918095 749.84522617 -157 747 C-158.14774902 746.82307617 -159.29549805 746.64615234 -160.47802734 746.46386719 C-176.29353979 743.99861434 -191.68255937 740.63539239 -207 736 C-207.88816406 735.73461426 -208.77632813 735.46922852 -209.69140625 735.19580078 C-250.55672139 722.89945685 -289.22612064 704.95038265 -323.8125 679.75 C-324.57731689 679.19497803 -325.34213379 678.63995605 -326.13012695 678.06811523 C-335.70655015 671.07835259 -345.10049805 663.84003743 -354 656 C-358.11322329 657.64926344 -360.97876008 660.61201259 -364.125 663.625 C-367.97215037 667.24837876 -371.822736 670.75406043 -376 674 C-381.79049048 678.52147065 -387.08442074 683.54348242 -392.44677734 688.55566406 C-397.57954658 693.32860697 -402.81679639 697.98610698 -408.125 702.5625 C-410.94796826 705.00907249 -413.58049828 707.57477767 -416.1875 710.25 C-418.92122459 713.03225224 -421.47505811 715.23752905 -425 717 C-425.23014028 711.36156315 -425.41390199 706.19917353 -423 701 C-420.39668948 698.24126796 -417.53014136 695.84104365 -414.62890625 693.40283203 C-411.43769472 690.65452546 -408.38501325 687.75440783 -405.3125 684.875 C-404.69544189 684.30128662 -404.07838379 683.72757324 -403.44262695 683.13647461 C-399.76072072 679.70124086 -396.16548238 676.19704464 -392.63427734 672.60693359 C-390.28686317 670.29879495 -387.79692803 668.16927104 -385.30859375 666.015625 C-382.47156223 663.53862286 -379.66576725 661.02882265 -376.875 658.5 C-375.41707031 657.18515625 -375.41707031 657.18515625 -373.9296875 655.84375 C-370.67877044 652.79808432 -367.83518163 649.42975614 -365 646 C-365.44802979 645.55720703 -365.89605957 645.11441406 -366.35766602 644.65820312 C-368.42870096 642.60823317 -370.49560697 640.55414567 -372.5625 638.5 C-373.26697266 637.80390625 -373.97144531 637.1078125 -374.69726562 636.390625 C-379.34724029 631.76207878 -383.73480311 626.98341793 -388 622 C-388.99658911 620.85867008 -389.99395269 619.71801583 -390.9921875 618.578125 C-397.3317185 611.28107193 -403.32185535 603.83018168 -409 596 C-409.76570313 594.97003906 -410.53140625 593.94007813 -411.3203125 592.87890625 C-439.56563178 554.55334513 -459.06188378 510.64529119 -472 465 C-472.83015625 465.41507813 -473.6603125 465.83015625 -474.515625 466.2578125 C-475.0938501 466.54688477 -475.6720752 466.83595703 -476.26782227 467.13378906 C-477.62000254 467.80996247 -478.97204761 468.48640629 -480.32397461 469.16308594 C-484.61342616 471.30941825 -488.90511349 473.45116092 -493.19979858 475.58700562 C-495.69534515 476.82846319 -498.19005523 478.07159659 -500.68469238 479.31488037 C-501.92789968 479.93397869 -503.17146598 480.55235668 -504.41540527 481.16998291 C-512.40361359 485.10349617 -512.40361359 485.10349617 -520.18359375 489.42578125 C-523 491 -523 491 -525.5 490.9375 C-528.7227565 489.72896631 -531.86162389 488.41534609 -535 487 C-535 486.34 -535 485.68 -535 485 C-533.54492187 483.89355469 -533.54492187 483.89355469 -531.46875 482.671875 C-530.68975342 482.2087793 -529.91075684 481.74568359 -529.1081543 481.26855469 C-528.24746338 480.76743164 -527.38677246 480.26630859 -526.5 479.75 C-525.61159424 479.22567383 -524.72318848 478.70134766 -523.80786133 478.16113281 C-521.88519186 477.02840764 -519.96037286 475.89932506 -518.03369141 474.7734375 C-514.96941145 472.98211853 -511.91204783 471.1794223 -508.85546875 469.375 C-498.02941348 463.00220356 -487.16498551 456.76141881 -476 451 C-476.56047294 444.5204968 -477.40109255 438.12017113 -478.40917969 431.69580078 C-492.38749567 342.18031883 -476.86270776 247.62247244 -428.41699219 170.27539062 C-427.08029503 168.12893688 -425.77372501 165.96738483 -424.4765625 163.796875 C-418.35379417 153.63497716 -411.35207899 144.30034256 -404 135 C-402.91912109 133.61361328 -402.91912109 133.61361328 -401.81640625 132.19921875 C-394.31003117 122.66409364 -386.52288543 113.23488818 -377.79296875 104.79296875 C-375.91936346 102.91936346 -374.21292833 100.9583705 -372.5 98.9375 C-369.66489531 95.65106698 -366.65346968 92.83178204 -363.34375 90.03125 C-361.01049531 88.00909594 -358.76127978 85.91098338 -356.515625 83.79248047 C-349.34748114 77.05314521 -341.84685251 70.92779574 -334 65 C-333.26442871 64.43990234 -332.52885742 63.87980469 -331.77099609 63.30273438 C-322.15685871 56.00085788 -312.49126331 49.11687102 -301.99560547 43.14355469 C-299.78830348 41.87869018 -297.59900445 40.58558647 -295.41015625 39.2890625 C-285.47348872 33.42509731 -275.46052708 27.87436144 -265 23 C-264.19739746 22.62552734 -263.39479492 22.25105469 -262.56787109 21.86523438 C-180.79262753 -15.85106969 -86.93092838 -23.69116256 0 0 Z " fill="#0B3D91" transform="translate(581,59)"/>
<path d="M0 0 C1.54270984 0.66726559 3.08570238 1.33387777 4.62890625 2 C43.44077231 18.93656464 77.52922055 43.54983537 108.75 71.96875 C110.74216476 73.76723208 112.76779511 75.51200085 114.8125 77.25 C119.16180865 81.02587039 123.16420248 85.13483397 127.20874023 89.23022461 C130.17150421 92.21718499 133.16079022 95.09230301 136.375 97.8125 C139.64923774 100.59457674 142.38752278 103.63455073 145.16015625 106.91015625 C147.13761436 109.15631356 149.22961266 111.22660347 151.375 113.3125 C155.56109028 117.43451747 159.21130842 121.85849804 162.87890625 126.44140625 C164.68706137 128.62251418 166.52572011 130.59961688 168.5625 132.5625 C171.9884052 135.87839907 174.88555619 139.50497168 177.82421875 143.25390625 C180.20393515 146.25739033 182.65813341 149.19331456 185.125 152.125 C196 165.14814815 196 165.14814815 196 168 C196.59167969 167.95359375 197.18335938 167.9071875 197.79296875 167.859375 C201.91607583 167.67104384 204.31700573 167.5931098 207.9375 169.75 C211.78197152 173.94396893 212.08809645 176.6190023 211.9375 182.25 C212.48263835 191.35757004 217.07451683 196.77556877 222.4296875 203.86523438 C225.06354922 207.4458449 227.44372867 211.17808696 229.8125 214.9375 C230.54194824 216.09258057 230.54194824 216.09258057 231.28613281 217.27099609 C253 252.11564722 253 252.11564722 253 258 C253.66 258 254.32 258 255 258 C255.09796875 257.42894531 255.1959375 256.85789062 255.296875 256.26953125 C256.39735854 250.30225411 257.9780263 244.61978478 259.8125 238.83984375 C260.95552643 235.20127399 261.98844062 231.53550752 263.01733398 227.86328125 C265.57261302 218.74908371 268.30438595 209.70354238 271.1875 200.6875 C271.52040039 199.64432617 271.85330078 198.60115234 272.19628906 197.52636719 C278.60738831 177.63585124 278.60738831 177.63585124 287.92578125 172.3359375 C303.21446787 164.90215694 321.13463406 162.01071585 337.8984375 166.24609375 C344.63406598 168.66240657 350.18523586 171.84715462 354 178 C354.41377631 183.21697377 353.48615283 187.56031151 351.83984375 192.4609375 C351.61469086 193.16003738 351.38953796 193.85913727 351.15756226 194.579422 C350.67574161 196.07315263 350.18956122 197.56548293 349.69937134 199.05648804 C348.40580985 202.99302908 347.14477277 206.939955 345.8828125 210.88671875 C345.50522545 212.06440575 345.50522545 212.06440575 345.12001038 213.2658844 C343.0165557 219.86216744 341.12042426 226.50418323 339.3125 233.1875 C336.80247782 242.41625322 333.92543111 251.47223834 330.84570312 260.52587891 C328.8715643 266.33915758 327.00944219 272.1624676 325.3125 278.0625 C324.91947885 279.40761288 324.52625496 280.75266654 324.1328125 282.09765625 C323.55648239 284.07131502 322.98724417 286.04588342 322.43652344 288.02685547 C319.66668747 297.91132154 316.45382787 305.55527681 307.75390625 311.546875 C299.42349688 316.19767826 289.49300726 318.27328354 280 318 C280.23074219 318.51304687 280.46148438 319.02609375 280.69921875 319.5546875 C286.08208094 332.19271178 289.03762212 345.58290299 291.75 359 C291.96068115 360.03777588 292.1713623 361.07555176 292.38842773 362.14477539 C294.56265573 373.24571908 295.23426814 384.10964931 295.29516602 395.40185547 C295.30663901 396.87330782 295.32701631 398.3447201 295.35668945 399.81591797 C295.7209382 417.98765726 292.07987675 435.75497483 280.0625 450.0625 C269.7897585 460.60866047 257.40299303 463.09904701 243.11572266 463.52636719 C219.03106306 463.76705116 193.48211443 458.26060857 172 447 C172 446.01 172 445.02 172 444 C179.95953757 446.59421965 179.95953757 446.59421965 183.34375 447.9140625 C207.51844541 457.32383318 236.97376683 463.17917203 262 454 C272.10888756 449.53018442 278.58358518 439.81803293 282.875 429.9375 C295.34657603 397.03834255 289.29925901 355.34560044 275.88671875 323.34375 C275 321 275 321 275 318 C274.44054687 318.03480469 273.88109375 318.06960938 273.3046875 318.10546875 C264.80019461 318.39259793 254.77895914 317.63758412 247.3125 313.1875 C243.37172123 309.4597363 242.12692375 306.52155574 241.67578125 301.11328125 C241.77105976 293.5455552 244.82438002 286.49726837 247.24414062 279.41796875 C249.7537909 271.76908772 250.91508524 266.61097436 247.20703125 259.1875 C246.42152475 257.78449719 245.62247362 256.38902127 244.8125 255 C244.37760254 254.23671387 243.94270508 253.47342773 243.49462891 252.68701172 C233.5021703 235.29659106 223.02570948 218.20510817 211.25 201.9609375 C210 200 210 200 210 198 C209.34 198 208.68 198 208 198 C207.90203125 198.64324219 207.8040625 199.28648437 207.703125 199.94921875 C205.58290486 212.76192841 202.56397447 226.28291225 192.453125 235.26171875 C189.88009971 237.08496119 188.10353947 237.64530977 185 238 C185.9590625 239.3921875 185.9590625 239.3921875 186.9375 240.8125 C191.20291314 247.40450213 191.0781743 254.84660248 189.50341797 262.37353516 C187.51564322 270.29853982 185.06443563 278.10209802 182.30078125 285.7890625 C182.03023926 286.55323486 181.75969727 287.31740723 181.48095703 288.10473633 C180.98038405 289.49756138 180.46155953 290.88408499 179.91748047 292.26049805 C177.25946783 299.57951925 177.29967473 307.29618096 177 315 C172.31860746 315.02465288 167.63725241 315.04283739 162.95581055 315.05493164 C161.36205386 315.05997157 159.76830181 315.0668035 158.17456055 315.07543945 C155.88849747 315.08751999 153.60249533 315.09323155 151.31640625 315.09765625 C150.59973282 315.10281754 149.88305939 315.10797882 149.14466858 315.11329651 C147.42936328 315.11349263 145.71418734 315.06192007 144 315 C142.43782946 313.43782946 142.76393576 311.95220977 142.703125 309.77734375 C142.77521054 303.019324 144.73428175 296.96347764 146.75 290.5625 C147.09804688 289.41201172 147.44609375 288.26152344 147.8046875 287.07617188 C149.74040543 280.74924196 151.84003412 274.50698089 154.15234375 268.30786133 C156.72405925 261.34311507 156.72405925 261.34311507 157 254 C154.64046906 251.64046906 153.22104383 251.50858587 150 251 C149.8040625 251.86496094 149.608125 252.72992188 149.40625 253.62109375 C147.08499755 263.39636806 144.18550097 272.91158904 141.07983398 282.46508789 C138.30250259 291.01127215 135.68159878 299.59537309 133.12890625 308.2109375 C132.45171098 310.48387663 131.74998971 312.75003086 131 315 C130.07703125 314.92281738 129.1540625 314.84563477 128.203125 314.76611328 C114.34837448 314.5179736 105.90786919 320.98288436 95 328.875 C93.2834489 330.08126019 91.56470546 331.28440682 89.84375 332.484375 C86.48051707 334.83611955 83.13122304 337.20571453 79.79296875 339.59277344 C74.61595378 343.28828761 69.37536191 346.88727755 64.11035156 350.45602417 C60.61688906 352.83645952 57.26659839 355.30908534 54 358 C60.15297553 363.88718825 66.52584278 369.29530497 73.3125 374.4375 C74.39349976 375.2567395 74.39349976 375.2567395 75.49633789 376.0925293 C77.66274123 377.73032925 79.83120614 379.36536745 82 381 C84.6348824 382.9874365 87.25906022 384.98771197 89.875 387 C90.45161377 387.4323999 91.02822754 387.8647998 91.62231445 388.31030273 C96.16300434 391.82035525 98.68089629 394.76627406 99.5 400.5 C99 404 99 404 97.125 406.9375 C92.65463696 409.88793961 89.20704551 410.04901063 84 409 C65.89685872 401.5342084 53.15307522 382.27319751 42 367 C37.18785149 368.59477754 33.49638557 371.30689427 29.4375 374.25 C27.91446297 375.34040333 26.39100814 376.43022328 24.8671875 377.51953125 C23.67367676 378.37538818 23.67367676 378.37538818 22.45605469 379.24853516 C18.34805101 382.17803997 14.20263244 385.05368361 10.0625 387.9375 C1.38101907 394.00161654 -7.21777837 400.17359376 -15.78662109 406.39550781 C-18.00695703 408.00504319 -20.23126042 409.60892787 -22.45703125 411.2109375 C-39.65906179 423.59384631 -56.67360979 436.20063516 -73.50146484 449.08789062 C-75.86969359 450.90027753 -78.24085109 452.70874282 -80.61328125 454.515625 C-93.68734408 464.47813371 -106.58822917 474.62520998 -119.328125 485.01171875 C-122.20612454 487.35721533 -125.09655836 489.68601547 -128 492 C-152.58817984 511.2691092 -152.58817984 511.2691092 -175.4375 532.5 C-179.08574996 536.2167617 -183.11216793 539.40815718 -187.1640625 542.671875 C-190.77270433 545.63434129 -194.22422477 548.74792051 -197.67578125 551.890625 C-199.72042335 553.74626657 -201.78784149 555.56756376 -203.875 557.375 C-207.83975714 560.82610439 -211.70421666 564.38392084 -215.56884766 567.94604492 C-218.42458751 570.57323507 -221.3083845 573.1570158 -224.25 575.6875 C-227.03438412 578.08982725 -229.62084306 580.61642835 -232.1875 583.25 C-234.92122459 586.03225224 -237.47505811 588.23752905 -241 590 C-241.23014028 584.36156315 -241.41390199 579.19917353 -239 574 C-236.39668948 571.24126796 -233.53014136 568.84104365 -230.62890625 566.40283203 C-227.43769472 563.65452546 -224.38501325 560.75440783 -221.3125 557.875 C-220.69544189 557.30128662 -220.07838379 556.72757324 -219.44262695 556.13647461 C-215.76072072 552.70124086 -212.16548238 549.19704464 -208.63427734 545.60693359 C-206.28686317 543.29879495 -203.79692803 541.16927104 -201.30859375 539.015625 C-198.47156223 536.53862286 -195.66576725 534.02882265 -192.875 531.5 C-191.41707031 530.18515625 -191.41707031 530.18515625 -189.9296875 528.84375 C-186.67877044 525.79808432 -183.83518163 522.42975614 -181 519 C-181.44802979 518.55720703 -181.89605957 518.11441406 -182.35766602 517.65820312 C-184.42870096 515.60823317 -186.49560697 513.55414567 -188.5625 511.5 C-189.26697266 510.80390625 -189.97144531 510.1078125 -190.69726562 509.390625 C-195.34724029 504.76207878 -199.73480311 499.98341793 -204 495 C-204.99658911 493.85867008 -205.99395269 492.71801583 -206.9921875 491.578125 C-213.3317185 484.28107193 -219.32185535 476.83018168 -225 469 C-225.76570313 467.97003906 -226.53140625 466.94007813 -227.3203125 465.87890625 C-255.56563178 427.55334513 -275.06188378 383.64529119 -288 338 C-288.83015625 338.41507813 -289.6603125 338.83015625 -290.515625 339.2578125 C-291.0938501 339.54688477 -291.6720752 339.83595703 -292.26782227 340.13378906 C-293.62000254 340.80996247 -294.97204761 341.48640629 -296.32397461 342.16308594 C-300.61342616 344.30941825 -304.90511349 346.45116092 -309.19979858 348.58700562 C-311.69534515 349.82846319 -314.19005523 351.07159659 -316.68469238 352.31488037 C-317.92789968 352.93397869 -319.17146598 353.55235668 -320.41540527 354.16998291 C-328.40361359 358.10349617 -328.40361359 358.10349617 -336.18359375 362.42578125 C-339 364 -339 364 -341.5 363.9375 C-344.7227565 362.72896631 -347.86162389 361.41534609 -351 360 C-351 359.34 -351 358.68 -351 358 C-349.54492187 356.89355469 -349.54492187 356.89355469 -347.46875 355.671875 C-346.68975342 355.2087793 -345.91075684 354.74568359 -345.1081543 354.26855469 C-344.24746338 353.76743164 -343.38677246 353.26630859 -342.5 352.75 C-341.61159424 352.22567383 -340.72318848 351.70134766 -339.80786133 351.16113281 C-337.88519186 350.02840764 -335.96037286 348.89932506 -334.03369141 347.7734375 C-330.96941145 345.98211853 -327.91204783 344.1794223 -324.85546875 342.375 C-296.63307242 325.75757448 -296.63307242 325.75757448 -287.421875 322.2109375 C-281.58040064 319.91705019 -276.06218887 317.06981991 -270.48486328 314.20306396 C-253.34154315 305.41818133 -235.79590524 297.62321073 -218.14050293 289.9342041 C-215.43005353 288.75125176 -212.72355833 287.5594364 -210.01724243 286.36706543 C-185.0795957 275.38501413 -159.8009459 265.36990448 -134.3125 255.75 C-132.97230804 255.24197845 -132.97230804 255.24197845 -131.6050415 254.72369385 C-129.06811199 253.76352287 -126.52868107 252.81032032 -123.98828125 251.859375 C-122.84198494 251.42439194 -122.84198494 251.42439194 -121.67253113 250.98062134 C-118.64704754 249.85592248 -116.25554059 249 -113 249 C-112.90976562 248.09378906 -112.81953125 247.18757813 -112.7265625 246.25390625 C-111.92027948 240.64785132 -110.07536062 235.32395429 -108.375 229.9375 C-108.01599609 228.78499756 -107.65699219 227.63249512 -107.28710938 226.44506836 C-104.78565491 218.43390676 -102.22689429 210.4412604 -99.66137695 202.45043945 C-95.91069188 190.69371146 -92.46652995 178.84295897 -89 167 C-88.01 167 -87.02 167 -86 167 C-86.27674561 166.23034912 -86.55349121 165.46069824 -86.83862305 164.66772461 C-89.48721836 157.29520382 -92.1200321 149.9173193 -94.74023438 142.53466797 C-95.63096427 140.03544561 -96.52847151 137.53939282 -97.43359375 135.04541016 C-100.43711696 126.70268 -102.56238814 118.16486996 -104.6875 109.5625 C-104.98551514 108.37148682 -105.28353027 107.18047363 -105.59057617 105.95336914 C-109.10060291 91.3413983 -110.42050111 77.04374199 -110.375 62.0625 C-110.3737915 61.31953674 -110.37258301 60.57657349 -110.37133789 59.81109619 C-110.28131259 39.38139066 -106.41545426 19.31875827 -91.53125 4.1796875 C-66.18403355 -17.64708222 -28.65679264 -12.84038317 0 0 Z " fill="#0B3D90" transform="translate(397,186)"/>
<path d="M0 0 C0.94037109 0.25475098 1.88074219 0.50950195 2.84960938 0.77197266 C36.51884734 10.0630513 69.30976684 24.588928 99 43 C99.7204248 43.44408203 100.44084961 43.88816406 101.18310547 44.34570312 C111.2117867 50.56746921 120.76057983 57.31709035 130.09765625 64.53125 C131.94395842 65.95673176 133.79939433 67.36955843 135.65625 68.78125 C143.24798417 74.59803589 150.3392211 80.80396154 157.27880859 87.38037109 C159.11591572 89.10907587 160.97179591 90.81575125 162.83203125 92.51953125 C169.94502619 99.05151203 176.66470395 105.69851016 183 113 C183.68835938 113.73863281 184.37671875 114.47726563 185.0859375 115.23828125 C196.52792654 127.52706009 206.20447228 141.40818571 215.74316406 155.19238281 C216.8547426 156.79108668 217.98462892 158.37702716 219.1171875 159.9609375 C219.67664063 160.75757813 220.23609375 161.55421875 220.8125 162.375 C221.27269531 163.02210938 221.73289062 163.66921875 222.20703125 164.3359375 C223 166 223 166 222 169 C220.49829102 170.15649414 220.49829102 170.15649414 218.50390625 171.28515625 C217.73618896 171.72359863 216.96847168 172.16204102 216.17749023 172.61376953 C215.31454346 173.09185059 214.45159668 173.56993164 213.5625 174.0625 C212.64218994 174.57925293 211.72187988 175.09600586 210.77368164 175.62841797 C176.27573486 194.84762543 140.98438891 212.76446128 105.0234375 229.08007812 C102.82134533 230.08122235 100.62146741 231.0871259 98.421875 232.09375 C78.11615495 241.38167278 57.75148856 250.42007433 36.98110962 258.62284851 C32.69437237 260.31755883 28.42390142 262.04866228 24.16001892 263.80006409 C21.10091304 265.05438962 18.03666511 266.29580487 14.97140503 267.53500366 C13.50245848 268.13179662 12.03554796 268.73362835 10.5708313 269.34072876 C8.54756075 270.17789887 6.51736608 270.99537169 4.484375 271.80859375 C3.32647461 272.28095459 2.16857422 272.75331543 0.97558594 273.23999023 C-2 274 -2 274 -4.25463867 273.30053711 C-6.95702527 271.28688298 -8.96307109 268.7311746 -11.0625 266.125 C-14.84752965 261.53484964 -18.70460826 257.05039774 -22.75 252.6875 C-25.76117292 249.43900359 -28.74086583 246.17510804 -31.625 242.8125 C-34.86066469 239.07247511 -38.35284989 235.62876016 -41.875 232.16015625 C-43.71141797 230.29335636 -45.39968619 228.39477655 -47.0625 226.375 C-49.65334868 223.27724615 -52.52338004 220.75655666 -55.59765625 218.1484375 C-58.68912106 215.38371287 -61.58633742 212.44990631 -64.5 209.5 C-69.17464012 204.78363385 -73.92329017 200.28459908 -79 196 C-80.04793966 195.08976595 -81.09470593 194.17818013 -82.140625 193.265625 C-89.28482772 187.05105113 -96.54970937 181.07162575 -104.13330078 175.3984375 C-105.46280548 174.40243921 -106.78895123 173.40195053 -108.11279297 172.3984375 C-130.31749165 155.57567767 -153.6506807 141.52617547 -179 130 C-180.06863281 129.505 -181.13726562 129.01 -182.23828125 128.5 C-204.11132226 118.818986 -233.73211747 112.40015745 -256.89453125 120.54296875 C-274.61748071 128.85826453 -283.48037521 140.6675289 -290.39453125 158.62109375 C-296.47368742 179.2644474 -294.45532892 205.22098002 -290 226 C-289.82791016 226.87092285 -289.65582031 227.7418457 -289.47851562 228.63916016 C-286.20812883 245.01117544 -280.94155831 260.6003597 -275.40673828 276.31787109 C-275.12475082 277.11991974 -274.84276337 277.92196838 -274.55223083 278.74832153 C-274.01917245 280.25961208 -273.48264561 281.76968543 -272.94203186 283.27828979 C-271.68500124 286.82812431 -270.61105875 290.28019684 -270 294 C-270.99 294 -271.98 294 -273 294 C-273.11754639 294.54962402 -273.23509277 295.09924805 -273.35620117 295.66552734 C-274.52351923 301.03233634 -275.8358607 306.33532637 -277.3125 311.625 C-277.5283374 312.40061279 -277.7441748 313.17622559 -277.96655273 313.9753418 C-279.68967119 320.07958722 -281.62104703 326.08586977 -283.69140625 332.08203125 C-284.13046823 333.38706075 -284.5661969 334.69321299 -285 336 C-285.31646484 336.94456055 -285.63292969 337.88912109 -285.95898438 338.86230469 C-287.77818765 344.49503407 -289.22373506 349.92836484 -290.0859375 355.7890625 C-293.03935211 373.05288773 -293.03935211 373.05288773 -299.85449219 378.12402344 C-306.5678601 381.48559056 -313.6826792 383.47635492 -320.9254303 385.35264587 C-327.86745283 387.15371285 -334.42553074 389.72989245 -341.0625 392.4375 C-343.38125826 393.3574067 -345.70026964 394.2766756 -348.01953125 395.1953125 C-383.68245593 409.48448098 -419.21501335 424.49181175 -453.55078125 441.76953125 C-454.15716431 442.07458084 -454.76354736 442.37963043 -455.38830566 442.69392395 C-458.27140844 444.14754924 -461.14828581 445.61221386 -464.01904297 447.09008789 C-465.02725098 447.60434326 -466.03545898 448.11859863 -467.07421875 448.6484375 C-467.95682373 449.10395996 -468.83942871 449.55948242 -469.7487793 450.02880859 C-472 451 -472 451 -475 451 C-493.18795244 355.05180459 -480.93958555 254.13150212 -428.41699219 170.27539062 C-427.08029503 168.12893688 -425.77372501 165.96738483 -424.4765625 163.796875 C-418.35379417 153.63497716 -411.35207899 144.30034256 -404 135 C-403.27941406 134.07574219 -402.55882812 133.15148437 -401.81640625 132.19921875 C-394.31003117 122.66409364 -386.52288543 113.23488818 -377.79296875 104.79296875 C-375.91936346 102.91936346 -374.21292833 100.9583705 -372.5 98.9375 C-369.66489531 95.65106698 -366.65346968 92.83178204 -363.34375 90.03125 C-361.01049531 88.00909594 -358.76127978 85.91098338 -356.515625 83.79248047 C-349.34748114 77.05314521 -341.84685251 70.92779574 -334 65 C-333.26442871 64.43990234 -332.52885742 63.87980469 -331.77099609 63.30273438 C-322.15685871 56.00085788 -312.49126331 49.11687102 -301.99560547 43.14355469 C-299.78830348 41.87869018 -297.59900445 40.58558647 -295.41015625 39.2890625 C-285.47348872 33.42509731 -275.46052708 27.87436144 -265 23 C-264.19739746 22.62552734 -263.39479492 22.25105469 -262.56787109 21.86523438 C-180.79262753 -15.85106969 -86.93092838 -23.69116256 0 0 Z " fill="#0B3D90" transform="translate(581,59)"/>
<path d="M0 0 C13.93075219 9.36135709 27.33056789 19.27086379 40.1875 30.0625 C41.22255739 30.92199407 42.25771807 31.78136376 43.29296875 32.640625 C50.61366212 38.74634323 57.65879152 45.1040227 64.62304688 51.61132812 C67.05876957 53.87068139 69.53392819 56.08637031 72 58.3125 C76.94798611 62.84596068 81.74582496 67.51392252 86.5 72.25 C87.15782471 72.90323242 87.81564941 73.55646484 88.4934082 74.22949219 C92.33284217 78.08105324 95.97955914 82.04650729 99.53295898 86.1628418 C101.97389782 88.9654012 104.51996872 91.66496581 107.0625 94.375 C111.7120102 99.36389586 116.09677137 104.48493743 120.34765625 109.8203125 C122.08445637 112.0406632 122.08445637 112.0406632 123.93359375 113.6796875 C125.1875 115.0625 125.1875 115.0625 125.1875 118.0625 C104.30068307 125.87315449 83.40901206 133.66908562 62.4375 141.25 C61.71671265 141.5112265 60.99592529 141.772453 60.2532959 142.04159546 C32.58207446 152.0625 32.58207446 152.0625 29.1875 152.0625 C30.2556847 146.94884986 31.41857476 141.99022031 33.1875 137.0625 C32.57583984 137.00263916 31.96417969 136.94277832 31.33398438 136.88110352 C27.04210394 136.4570874 22.75340062 136.01942609 18.46875 135.52734375 C-9.34446368 132.37276401 -9.34446368 132.37276401 -35.8125 140.0625 C-37.56399165 141.64495275 -37.56399165 141.64495275 -38.8125 143.0625 C-39.4725 143.0625 -40.1325 143.0625 -40.8125 143.0625 C-41.080625 143.8875 -41.34875 144.7125 -41.625 145.5625 C-42.8125 149.0625 -42.8125 149.0625 -44.31640625 152.61328125 C-45.57482912 155.88270218 -46.00432108 158.70837386 -46.1953125 162.19921875 C-46.8979315 168.84529363 -48.02668009 174.15533669 -52.8125 179.0625 C-64.93704995 186.19313352 -80.24068628 188.92558857 -93.8125 192.0625 C-94.09873734 191.57435822 -94.38497467 191.08621643 -94.67988586 190.58328247 C-95.99032711 188.34938657 -97.30179571 186.11609546 -98.61328125 183.8828125 C-99.06352661 183.11493408 -99.51377197 182.34705566 -99.97766113 181.5559082 C-102.636795 177.0296712 -105.33269622 172.53604033 -108.16796875 168.1171875 C-110.17207661 161.72833455 -106.29535143 153.84865014 -104.3125 147.8125 C-103.83103516 146.32363281 -103.83103516 146.32363281 -103.33984375 144.8046875 C-102.17862464 141.21899836 -101.0043718 137.6381154 -99.8125 134.0625 C-107.7325 134.0625 -115.6525 134.0625 -123.8125 134.0625 C-133.57304349 109.44112903 -142.08779852 85.17438073 -146.8125 59.0625 C-146.99796387 58.11600586 -147.18342773 57.16951172 -147.37451172 56.19433594 C-148.81802914 48.41917254 -149.19800843 40.83773832 -149.1875 32.9375 C-149.18588867 31.66938477 -149.18427734 30.40126953 -149.18261719 29.09472656 C-149.01242935 15.98358921 -147.42741254 2.65497049 -140.8125 -8.9375 C-140.30847656 -9.83855469 -139.80445313 -10.73960937 -139.28515625 -11.66796875 C-132.46347415 -23.13025091 -122.81867105 -30.50119079 -109.98193359 -34.5090332 C-71.02296062 -42.20349613 -31.22783447 -20.83433664 0 0 Z " fill="#0C3D91" transform="translate(443.8125,218.9375)"/>
<path d="M0 0 C1.54270984 0.66726559 3.08570238 1.33387777 4.62890625 2 C43.44077231 18.93656464 77.52922055 43.54983537 108.75 71.96875 C110.74216476 73.76723208 112.76779511 75.51200085 114.8125 77.25 C119.16180865 81.02587039 123.16420248 85.13483397 127.20874023 89.23022461 C130.17150421 92.21718499 133.16079022 95.09230301 136.375 97.8125 C139.64923774 100.59457674 142.38752278 103.63455073 145.16015625 106.91015625 C147.13761436 109.15631356 149.22961266 111.22660347 151.375 113.3125 C155.56109028 117.43451747 159.21130842 121.85849804 162.87890625 126.44140625 C164.68706137 128.62251418 166.52572011 130.59961688 168.5625 132.5625 C171.9884052 135.87839907 174.88555619 139.50497168 177.82421875 143.25390625 C180.20393515 146.25739033 182.65813341 149.19331456 185.125 152.125 C196 165.14814815 196 165.14814815 196 168 C196.59167969 167.95359375 197.18335938 167.9071875 197.79296875 167.859375 C201.91607583 167.67104384 204.31700573 167.5931098 207.9375 169.75 C211.78197152 173.94396893 212.08809645 176.6190023 211.9375 182.25 C212.48263835 191.35757004 217.07451683 196.77556877 222.4296875 203.86523438 C225.06354922 207.4458449 227.44372867 211.17808696 229.8125 214.9375 C230.29879883 215.70755371 230.78509766 216.47760742 231.28613281 217.27099609 C253 252.11564722 253 252.11564722 253 258 C253.66 258 254.32 258 255 258 C255.14695312 257.14341797 255.14695312 257.14341797 255.296875 256.26953125 C256.39735854 250.30225411 257.9780263 244.61978478 259.8125 238.83984375 C260.95552643 235.20127399 261.98844062 231.53550752 263.01733398 227.86328125 C265.57261302 218.74908371 268.30438595 209.70354238 271.1875 200.6875 C271.52040039 199.64432617 271.85330078 198.60115234 272.19628906 197.52636719 C278.60738831 177.63585124 278.60738831 177.63585124 287.92578125 172.3359375 C303.21446787 164.90215694 321.13463406 162.01071585 337.8984375 166.24609375 C344.63406598 168.66240657 350.18523586 171.84715462 354 178 C354.41377631 183.21697377 353.48615283 187.56031151 351.83984375 192.4609375 C351.61469086 193.16003738 351.38953796 193.85913727 351.15756226 194.579422 C350.67574161 196.07315263 350.18956122 197.56548293 349.69937134 199.05648804 C348.40580985 202.99302908 347.14477277 206.939955 345.8828125 210.88671875 C345.6310878 211.67184341 345.3793631 212.45696808 345.12001038 213.2658844 C343.0165557 219.86216744 341.12042426 226.50418323 339.3125 233.1875 C336.80247782 242.41625322 333.92543111 251.47223834 330.84570312 260.52587891 C328.8715643 266.33915758 327.00944219 272.1624676 325.3125 278.0625 C324.91947885 279.40761288 324.52625496 280.75266654 324.1328125 282.09765625 C323.55648239 284.07131502 322.98724417 286.04588342 322.43652344 288.02685547 C319.66668747 297.91132154 316.45382787 305.55527681 307.75390625 311.546875 C299.42349688 316.19767826 289.49300726 318.27328354 280 318 C280.23074219 318.51304687 280.46148438 319.02609375 280.69921875 319.5546875 C286.08208094 332.19271178 289.03762212 345.58290299 291.75 359 C292.06602173 360.55666382 292.06602173 360.55666382 292.38842773 362.14477539 C294.56265573 373.24571908 295.23426814 384.10964931 295.29516602 395.40185547 C295.30663901 396.87330782 295.32701631 398.3447201 295.35668945 399.81591797 C295.7209382 417.98765726 292.07987675 435.75497483 280.0625 450.0625 C269.7897585 460.60866047 257.40299303 463.09904701 243.11572266 463.52636719 C219.03106306 463.76705116 193.48211443 458.26060857 172 447 C172 446.01 172 445.02 172 444 C179.95953757 446.59421965 179.95953757 446.59421965 183.34375 447.9140625 C207.51844541 457.32383318 236.97376683 463.17917203 262 454 C272.10888756 449.53018442 278.58358518 439.81803293 282.875 429.9375 C295.34657603 397.03834255 289.29925901 355.34560044 275.88671875 323.34375 C275 321 275 321 275 318 C274.44054687 318.03480469 273.88109375 318.06960938 273.3046875 318.10546875 C264.80019461 318.39259793 254.77895914 317.63758412 247.3125 313.1875 C243.37172123 309.4597363 242.12692375 306.52155574 241.67578125 301.11328125 C241.77105976 293.5455552 244.82438002 286.49726837 247.24414062 279.41796875 C249.7537909 271.76908772 250.91508524 266.61097436 247.20703125 259.1875 C246.42152475 257.78449719 245.62247362 256.38902127 244.8125 255 C244.37760254 254.23671387 243.94270508 253.47342773 243.49462891 252.68701172 C233.5021703 235.29659106 223.02570948 218.20510817 211.25 201.9609375 C210 200 210 200 210 198 C209.34 198 208.68 198 208 198 C207.85304688 198.96486328 207.85304688 198.96486328 207.703125 199.94921875 C205.58290486 212.76192841 202.56397447 226.28291225 192.453125 235.26171875 C189.88009971 237.08496119 188.10353947 237.64530977 185 238 C185.639375 238.928125 186.27875 239.85625 186.9375 240.8125 C191.20291314 247.40450213 191.0781743 254.84660248 189.50341797 262.37353516 C187.51564322 270.29853982 185.06443563 278.10209802 182.30078125 285.7890625 C182.03023926 286.55323486 181.75969727 287.31740723 181.48095703 288.10473633 C180.98038405 289.49756138 180.46155953 290.88408499 179.91748047 292.26049805 C177.25946783 299.57951925 177.29967473 307.29618096 177 315 C172.31860746 315.02465288 167.63725241 315.04283739 162.95581055 315.05493164 C161.36205386 315.05997157 159.76830181 315.0668035 158.17456055 315.07543945 C155.88849747 315.08751999 153.60249533 315.09323155 151.31640625 315.09765625 C150.59973282 315.10281754 149.88305939 315.10797882 149.14466858 315.11329651 C147.42936328 315.11349263 145.71418734 315.06192007 144 315 C142.43782946 313.43782946 142.76393576 311.95220977 142.703125 309.77734375 C142.77521054 303.019324 144.73428175 296.96347764 146.75 290.5625 C147.09804688 289.41201172 147.44609375 288.26152344 147.8046875 287.07617188 C149.74040543 280.74924196 151.84003412 274.50698089 154.15234375 268.30786133 C156.72405925 261.34311507 156.72405925 261.34311507 157 254 C154.64046906 251.64046906 153.22104383 251.50858587 150 251 C149.8040625 251.86496094 149.608125 252.72992188 149.40625 253.62109375 C147.08499755 263.39636806 144.18550097 272.91158904 141.07983398 282.46508789 C138.30250259 291.01127215 135.68159878 299.59537309 133.12890625 308.2109375 C132.45171098 310.48387663 131.74998971 312.75003086 131 315 C120.11 315 109.22 315 98 315 C99.23407163 309.44667767 100.45202076 304.21365628 102.1015625 298.81640625 C102.29895523 298.16730789 102.49634796 297.51820953 102.69972229 296.84944153 C103.33822919 294.75278588 103.98153373 292.65763835 104.625 290.5625 C105.07489715 289.08878728 105.5245192 287.61499056 105.97387695 286.14111328 C107.31110144 281.75925991 108.65475285 277.37939601 110 273 C110.37527832 271.77748535 110.75055664 270.5549707 111.13720703 269.29541016 C112.79876592 263.8859162 114.46436075 258.47768397 116.1328125 253.0703125 C117.96182801 247.13596269 119.76281247 241.19329454 121.5625 235.25 C123.82811072 227.76899192 126.16843242 220.31582523 128.5625 212.875 C131.16078769 204.78991037 133.58629712 196.6689031 135.87133789 188.48974609 C137.79552903 181.61413763 139.89732119 174.83370613 142 168 C156.52 168 171.04 168 186 168 C179.58412375 159.11948798 179.58412375 159.11948798 172.75 150.6875 C172.29020752 150.1517334 171.83041504 149.6159668 171.35668945 149.06396484 C170.39179172 147.93996076 169.42539836 146.81723887 168.45751953 145.69580078 C167.00187092 144.00217678 165.55990114 142.2977876 164.12109375 140.58984375 C158.26006218 133.65407726 152.22638721 126.91940686 145.9831543 120.32470703 C143.12312664 117.30010678 140.32734692 114.24318697 137.609375 111.08984375 C133.77849231 106.68313234 129.70115899 102.553808 125.5625 98.4375 C124.49418945 97.36338867 124.49418945 97.36338867 123.40429688 96.26757812 C119.35463241 92.22527 115.20730532 88.36336428 110.87329102 84.62817383 C108.0775299 82.19823367 105.38898229 79.6585454 102.6875 77.125 C96.98516719 71.82679549 91.08310012 66.85831486 85 62 C83.89353347 61.091057 82.78811724 60.1808344 81.68359375 59.26953125 C45.64979736 29.72162017 0.64183184 -0.94520231 -47.4375 -1.5 C-48.61078857 -1.51877197 -49.78407715 -1.53754395 -50.99291992 -1.55688477 C-63.89901529 -1.46072781 -75.13264332 2.96346331 -84.8125 11.62109375 C-100.01411065 28.12909282 -102.18398824 52.37810301 -101.41439819 73.69059753 C-99.92111808 103.70367601 -89.96103022 134.34336872 -77.88720703 161.66210938 C-77 164 -77 164 -77 167 C-69.08 167 -61.16 167 -53 167 C-53.67099034 170.35495172 -54.36496165 173.38547206 -55.375 176.6171875 C-55.63796875 177.47183594 -55.9009375 178.32648438 -56.171875 179.20703125 C-56.7217469 180.97855252 -57.27381325 182.7493942 -57.828125 184.51953125 C-58.09109375 185.37675781 -58.3540625 186.23398437 -58.625 187.1171875 C-58.86476563 187.88659668 -59.10453125 188.65600586 -59.3515625 189.44873047 C-61.05110431 195.77941785 -61.05110431 195.77941785 -59.8125 202.05786133 C-59.214375 203.0558374 -58.61625 204.05381348 -58 205.08203125 C-57.0409375 206.72655273 -57.0409375 206.72655273 -56.0625 208.40429688 C-55.381875 209.52900391 -54.70125 210.65371094 -54 211.8125 C-52.6560492 214.06304919 -51.32640568 216.32099092 -50 218.58203125 C-49.401875 219.57436768 -48.80375 220.5667041 -48.1875 221.58911133 C-47.5996875 222.78250122 -47.5996875 222.78250122 -47 224 C-47.33 224.66 -47.66 225.32 -48 226 C-51.96 226.99 -51.96 226.99 -56 228 C-58.97 222.39 -61.94 216.78 -65 211 C-65.33 211 -65.66 211 -66 211 C-66.29132813 212.09054687 -66.58265625 213.18109375 -66.8828125 214.3046875 C-69.04632336 222.30054364 -71.33138686 230.2194124 -74 238.0625 C-77.22736216 247.55943511 -80.03543507 257.15157456 -82.80078125 266.79150391 C-86.58581632 279.96783317 -90.56162923 293.02924405 -95 306 C-95.99 308.97 -96.98 311.94 -98 315 C-109.55 315 -121.1 315 -133 315 C-131.62186052 307.42023288 -130.09877223 300.59315059 -127.6875 293.375 C-127.05708838 291.44319894 -126.42819664 289.51090126 -125.80078125 287.578125 C-125.49350098 286.63388672 -125.1862207 285.68964844 -124.86962891 284.71679688 C-123.25631419 279.67666038 -121.79691273 274.59376387 -120.3359375 269.5078125 C-119.16390634 265.48816526 -117.91013836 261.49467487 -116.65625 257.5 C-114.30181879 249.99843846 -112.01623724 242.47754199 -109.74969482 234.94903564 C-106.44194743 223.96705575 -103.07737214 213.00938644 -99.55883789 202.09277344 C-95.83198277 190.45868719 -92.43165636 178.72381777 -89 167 C-88.01 167 -87.02 167 -86 167 C-86.27674561 166.23034912 -86.55349121 165.46069824 -86.83862305 164.66772461 C-89.48721836 157.29520382 -92.1200321 149.9173193 -94.74023438 142.53466797 C-95.63096427 140.03544561 -96.52847151 137.53939282 -97.43359375 135.04541016 C-100.43711696 126.70268 -102.56238814 118.16486996 -104.6875 109.5625 C-105.13452271 107.77598022 -105.13452271 107.77598022 -105.59057617 105.95336914 C-109.10060291 91.3413983 -110.42050111 77.04374199 -110.375 62.0625 C-110.3737915 61.31953674 -110.37258301 60.57657349 -110.37133789 59.81109619 C-110.28131259 39.38139066 -106.41545426 19.31875827 -91.53125 4.1796875 C-66.18403355 -17.64708222 -28.65679264 -12.84038317 0 0 Z " fill="#FBFBFC" transform="translate(397,186)"/>
<path d="M0 0 C3.46721835 3.43330736 6.71134603 6.9177722 9.8125 10.6875 C10.60269531 11.64011719 11.39289063 12.59273438 12.20703125 13.57421875 C14 16 14 16 14 18 C-0.52 18 -15.04 18 -30 18 C-30.66 21.3 -31.32 24.6 -32 28 C-32.89535826 31.02478801 -33.81891811 34.00932811 -34.8125 37 C-36.88385097 43.38059689 -38.81245894 49.77393841 -40.5625 56.25 C-42.39588402 63.00699564 -44.49298662 69.61047635 -46.75390625 76.23828125 C-48.30528873 80.9216083 -49.68363696 85.64458014 -51.0546875 90.38305664 C-52.62379259 95.7817284 -54.29141177 101.14396151 -56 106.5 C-57.83952964 112.27327521 -59.62651785 118.05503589 -61.3125 123.875 C-63.68953851 132.07315069 -66.21662968 140.22415636 -68.75 148.375 C-68.95267487 149.02740662 -69.15534973 149.67981323 -69.36416626 150.35198975 C-72.76940283 161.3082085 -72.76940283 161.3082085 -74 165 C-68.39 165 -62.78 165 -57 165 C-59.6520552 167.6520552 -61.51901865 169.51242421 -64.50488281 171.48266602 C-65.17368469 171.92735733 -65.84248657 172.37204865 -66.53155518 172.83021545 C-67.24817322 173.30003342 -67.96479126 173.76985138 -68.703125 174.25390625 C-69.45857605 174.75486313 -70.2140271 175.25582001 -70.99237061 175.7719574 C-73.40869843 177.37321163 -75.82911463 178.96814645 -78.25 180.5625 C-81.40242317 182.64505098 -84.55319309 184.7300893 -87.703125 186.81640625 C-88.47829468 187.32974518 -89.25346436 187.84308411 -90.05212402 188.37197876 C-95.3475062 191.88565752 -100.61692837 195.43514888 -105.859375 199.02734375 C-106.50819641 199.47042374 -107.15701782 199.91350372 -107.82550049 200.37001038 C-111.33312982 202.78465963 -114.70814315 205.29239687 -118 208 C-111.84702447 213.88718825 -105.47415722 219.29530497 -98.6875 224.4375 C-97.9668335 224.98365967 -97.24616699 225.52981934 -96.50366211 226.0925293 C-94.33725877 227.73032925 -92.16879386 229.36536745 -90 231 C-87.3651176 232.9874365 -84.74093978 234.98771197 -82.125 237 C-81.54838623 237.4323999 -80.97177246 237.8647998 -80.37768555 238.31030273 C-75.83699566 241.82035525 -73.31910371 244.76627406 -72.5 250.5 C-73 254 -73 254 -74.875 256.9375 C-79.34536304 259.88793961 -82.79295449 260.04901063 -88 259 C-106.10314128 251.5342084 -118.84692478 232.27319751 -130 217 C-134.81214851 218.59477754 -138.50361443 221.30689427 -142.5625 224.25 C-144.08553703 225.34040333 -145.60899186 226.43022328 -147.1328125 227.51953125 C-148.32632324 228.37538818 -148.32632324 228.37538818 -149.54394531 229.24853516 C-153.65194899 232.17803997 -157.79736756 235.05368361 -161.9375 237.9375 C-170.61898093 244.00161654 -179.21777837 250.17359376 -187.78662109 256.39550781 C-190.00695703 258.00504319 -192.23126042 259.60892787 -194.45703125 261.2109375 C-211.65906179 273.59384631 -228.67360979 286.20063516 -245.50146484 299.08789062 C-247.86969359 300.90027753 -250.24085109 302.70874282 -252.61328125 304.515625 C-265.68734408 314.47813371 -278.58822917 324.62520998 -291.328125 335.01171875 C-294.20612454 337.35721533 -297.09655836 339.68601547 -300 342 C-324.58817984 361.2691092 -324.58817984 361.2691092 -347.4375 382.5 C-351.08574996 386.2167617 -355.11216793 389.40815718 -359.1640625 392.671875 C-362.77270433 395.63434129 -366.22422477 398.74792051 -369.67578125 401.890625 C-371.72042335 403.74626657 -373.78784149 405.56756376 -375.875 407.375 C-379.83975714 410.82610439 -383.70421666 414.38392084 -387.56884766 417.94604492 C-390.42458751 420.57323507 -393.3083845 423.1570158 -396.25 425.6875 C-399.03438412 428.08982725 -401.62084306 430.61642835 -404.1875 433.25 C-406.92122459 436.03225224 -409.47505811 438.23752905 -413 440 C-413.23014028 434.36156315 -413.41390199 429.19917353 -411 424 C-408.39668948 421.24126796 -405.53014136 418.84104365 -402.62890625 416.40283203 C-399.43769472 413.65452546 -396.38501325 410.75440783 -393.3125 407.875 C-392.69544189 407.30128662 -392.07838379 406.72757324 -391.44262695 406.13647461 C-387.76072072 402.70124086 -384.16548238 399.19704464 -380.63427734 395.60693359 C-378.28735142 393.29927503 -375.79880919 391.16995121 -373.30859375 389.01953125 C-370.46265397 386.52993587 -367.66424396 383.99016396 -364.875 381.4375 C-364.35454102 380.96151367 -363.83408203 380.48552734 -363.29785156 379.99511719 C-360.64904372 377.559568 -358.0611798 375.08907131 -355.5625 372.5 C-353 370 -353 370 -350.5625 368.5625 C-347.50328575 366.69712546 -345.3412699 364.42328542 -342.85546875 361.86328125 C-341.12934572 360.12989033 -339.35688527 358.52854053 -337.5 356.9375 C-333.39489656 353.40165895 -329.45001646 349.70667803 -325.5 346 C-321.06595157 341.84210011 -316.61876914 337.72394772 -312.0078125 333.76171875 C-309.8834041 331.89769503 -307.80955901 329.98316615 -305.73730469 328.06152344 C-301.4474675 324.08524712 -297.12588296 320.22784112 -292.5625 316.5625 C-288.37759659 313.19651294 -284.4171199 309.66798463 -280.5 306 C-275.76671465 301.57260252 -270.9133273 297.38608943 -265.85546875 293.328125 C-263.22792633 291.18583323 -260.66589013 288.98861095 -258.11108398 286.76123047 C-238.44698337 269.64397793 -216.82468348 255.14385005 -195.26513672 240.5640564 C-189.77156812 236.84806393 -184.29016718 233.11439114 -178.8125 229.375 C-170.65054459 223.80555804 -162.48329339 218.24396377 -154.3125 212.6875 C-153.23009033 211.95128418 -152.14768066 211.21506836 -151.0324707 210.45654297 C-149.52559692 209.43197998 -149.52559692 209.43197998 -147.98828125 208.38671875 C-147.09665283 207.78045654 -146.20502441 207.17419434 -145.28637695 206.54956055 C-143.52937583 205.35877719 -141.76602904 204.17735269 -140 203 C-144.54910459 193.25510437 -152.41350167 184.94747021 -159.25097656 176.7512207 C-159.83588867 176.04956787 -160.42080078 175.34791504 -161.0234375 174.625 C-161.54856934 173.99851562 -162.07370117 173.37203125 -162.61474609 172.7265625 C-164 171 -164 171 -166 168 C-169.07006858 167.68605002 -171.98698144 167.5390063 -175.0625 167.5 C-181.93994969 167.29040509 -188.60175971 166.79716192 -195.375 165.5625 C-196.39799194 165.37880859 -196.39799194 165.37880859 -197.44165039 165.19140625 C-201.41874844 164.4292325 -205.18890579 163.36279065 -209 162 C-208.42698053 157.20750802 -207.45276318 152.8979871 -205.8984375 148.33203125 C-205.28742188 146.49801758 -205.28742188 146.49801758 -204.6640625 144.62695312 C-204.01810167 142.71002737 -203.36879654 140.79434157 -202.71484375 138.88012695 C-202.07953875 137.01296747 -201.45754886 135.14129413 -200.8359375 133.26953125 C-200.27205322 131.60821167 -200.27205322 131.60821167 -199.69677734 129.91333008 C-198.99951023 126.99795218 -198.88280507 125.72707282 -200 123 C-202.03790195 119.88818292 -204.20455151 116.88989411 -206.3828125 113.875 C-208 111 -208 111 -207.7421875 108.625 C-207.49726563 108.08875 -207.25234375 107.5525 -207 107 C-204.36 106.67 -201.72 106.34 -199 106 C-197.68 107.98 -196.36 109.96 -195 112 C-194.34 110.35 -193.68 108.7 -193 107 C-182.77 107 -172.54 107 -162 107 C-164.24040067 117.08180301 -164.24040067 117.08180301 -165.5078125 121.26171875 C-165.90419922 122.59879883 -165.90419922 122.59879883 -166.30859375 123.96289062 C-166.85673164 125.79220248 -167.40887279 127.62031918 -167.96484375 129.44726562 C-169.32359998 134.05565805 -170.48698132 138.13804132 -170 143 C-168.90076459 144.30746709 -168.90076459 144.30746709 -166.1875 144.3125 C-162.22066578 143.92359468 -161.50838522 143.00905082 -159 140 C-157.71495597 137.3524098 -157.71495597 137.3524098 -156.8125 134.5 C-156.48894531 133.5615625 -156.16539062 132.623125 -155.83203125 131.65625 C-153.48580009 124.16593456 -151.71972907 115.71308509 -154 108 C-157.07710067 103.21814758 -161.63040269 99.81243517 -166.12133789 96.42236328 C-172.68280118 91.45458094 -177.55033132 87.11112518 -180 79 C-180.87831854 71.63048921 -180.33147825 65.39832208 -177.86474609 58.4519043 C-176.9468002 55.84915708 -176.12510303 53.22849115 -175.31640625 50.58984375 C-175.02830078 49.66236328 -174.74019531 48.73488281 -174.44335938 47.77929688 C-173.85535575 45.88230071 -173.27203105 43.98384801 -172.69335938 42.08398438 C-169.73559323 32.61781522 -167.12942032 24.86902417 -158 20 C-149.52996596 16.88458518 -140.80435839 15.80246444 -131.8125 15.8125 C-130.65814453 15.8137085 -130.65814453 15.8137085 -129.48046875 15.81494141 C-116.9254771 15.94361998 -104.23627276 17.14486969 -92 20 C-92.28740942 21.37589617 -92.58017742 22.75067322 -92.875 24.125 C-93.11863281 25.27355469 -93.11863281 25.27355469 -93.3671875 26.4453125 C-94.0885434 29.357453 -95.03928563 32.15888383 -96 35 C-72.35887613 26.91432088 -48.88320428 18.42542915 -25.5 9.625 C-24.86460297 9.38587009 -24.22920593 9.14674019 -23.57455444 8.90036392 C-15.71352534 5.94109917 -7.85537762 2.97423467 0 0 Z " fill="#0D3E91" transform="translate(569,336)"/>
<path d="M0 0 C1.36035777 3.69348232 0.6256592 5.75805669 -0.81640625 9.34765625 C-1.24348877 10.4140332 -1.67057129 11.48041016 -2.1105957 12.57910156 C-2.82928833 14.30338379 -2.82928833 14.30338379 -3.5625 16.0625 C-4.30536255 17.8583252 -4.30536255 17.8583252 -5.06323242 19.69042969 C-16.78130793 47.62669648 -32.07922864 73.93349998 -50.46484375 97.98583984 C-51.84647609 99.79857312 -53.20963936 101.6227813 -54.5625 103.45703125 C-61.43503446 112.75165685 -68.76800688 121.62226194 -76.3125 130.375 C-76.79686523 130.93872314 -77.28123047 131.50244629 -77.78027344 132.08325195 C-88.0347077 143.90351264 -98.91545297 155.07718241 -109.9921875 166.12255859 C-112.26419369 168.38915993 -114.53074444 170.66111959 -116.796875 172.93359375 C-118.26530417 174.40136271 -119.7340432 175.86882176 -121.203125 177.3359375 C-121.86789856 178.00273529 -122.53267212 178.66953308 -123.21759033 179.35653687 C-127.11084431 183.23065652 -131.11198318 186.92508356 -135.27272034 190.51083374 C-138.17696848 193.01471799 -140.9940553 195.6161383 -143.82421875 198.203125 C-146 200 -146 200 -148.44921875 201.4453125 C-151.36553878 203.22279392 -153.63771977 205.28621411 -156.125 207.625 C-160.66273237 211.8169426 -165.31829775 215.77811523 -170.125 219.65625 C-172.6935751 221.75019709 -175.22035717 223.8818593 -177.73754883 226.03662109 C-183.49836731 230.96514002 -189.38238007 235.6841712 -195.421875 240.26953125 C-198.07576969 242.28555738 -200.70609244 244.32942282 -203.328125 246.38671875 C-211.36500123 252.6907401 -219.43531658 258.88962434 -227.81640625 264.73046875 C-229.92971497 266.23701153 -232.00200586 267.8028976 -234.02734375 269.42578125 C-234.96707031 270.17214844 -235.90679688 270.91851562 -236.875 271.6875 C-237.67679688 272.35136719 -238.47859375 273.01523437 -239.3046875 273.69921875 C-242.45009628 275.21722038 -244.41748236 274.95567194 -247.8046875 274.36108398 C-263.68183131 271.74961872 -279.44369453 274.55339627 -293.53515625 282.14453125 C-300.28538113 287.22592082 -303.16258749 292.90629447 -305.5625 300.875 C-305.85423096 301.79611572 -306.14596191 302.71723145 -306.4465332 303.66625977 C-307.31782104 306.43845228 -308.1631063 309.21725272 -309 312 C-309.24137695 312.79422363 -309.48275391 313.58844727 -309.73144531 314.40673828 C-311.53810326 320.37077721 -313.25296848 326.35925895 -314.94921875 332.35546875 C-318.13862185 343.61931009 -321.56911756 354.80768621 -325 366 C-325.66 366 -326.32 366 -327 366 C-327.2902002 365.4237085 -327.58040039 364.84741699 -327.87939453 364.25366211 C-338.42533014 343.41855792 -349.71014589 321.62420906 -364.36425781 303.29345703 C-367.6375761 299.1139856 -368.58899228 296.3361706 -368.625 290.875 C-368.67882773 285.95514561 -368.98696156 282.97494742 -372 279 C-375.23051318 276.84632455 -375.60176042 276.91653184 -379.1875 277.0625 C-382.60265843 276.76360445 -383.71959864 276.29434397 -386.12109375 273.7734375 C-387.47677972 271.85486437 -388.79125665 269.90661195 -390.06640625 267.93359375 C-392.34139199 264.48204973 -394.98022226 261.61780107 -397.84765625 258.65625 C-398.22792969 258.1096875 -398.60820313 257.563125 -399 257 C-398.67 256.01 -398.34 255.02 -398 254 C-395.61988754 252.8380342 -393.3288701 251.87397848 -390.85546875 250.953125 C-389.73986069 250.52166924 -389.73986069 250.52166924 -388.60171509 250.08149719 C-386.98462854 249.45702372 -385.36563813 248.8374636 -383.74502563 248.22219849 C-379.380044 246.56292732 -375.03106392 244.86252393 -370.6796875 243.16796875 C-369.33784142 242.64703896 -369.33784142 242.64703896 -367.96888733 242.11558533 C-341.95107348 231.99781575 -316.43752909 220.79279081 -291.14202881 208.99743652 C-289.02135406 208.00994352 -286.89893838 207.02629958 -284.77587891 206.04394531 C-255.22233636 192.36373141 -225.77391897 178.26184684 -197.36425781 162.31884766 C-194.90632423 160.9477451 -192.43560302 159.60236186 -189.9609375 158.26171875 C-188.34889466 157.38292929 -186.73691259 156.50402834 -185.125 155.625 C-184.41698242 155.24400146 -183.70896484 154.86300293 -182.97949219 154.47045898 C-179.50322637 152.5583459 -176.29662236 150.53268515 -173.15234375 148.109375 C-168.49316119 144.52303053 -163.49393418 141.61139689 -158.4375 138.625 C-134.1324509 124.03726482 -110.31428691 107.26937261 -88.8125 88.75 C-84.85737745 85.35746206 -80.84580527 82.08101683 -76.70629883 78.91601562 C-70.18607297 73.9266254 -64.3687399 68.57818394 -58.65234375 62.69140625 C-56.55844016 60.56666461 -54.46638922 58.60372728 -52.1875 56.6875 C-43.32231644 49.1260199 -34.95765182 40.57095039 -27.453125 31.6640625 C-25.96633533 29.96144852 -24.38946043 28.4301891 -22.75 26.875 C-18.79901627 23.00392381 -15.51606672 18.65452802 -12.14233398 14.28613281 C-8.30253105 9.32974422 -4.25412554 4.60762021 0 0 Z " fill="#FA3C21" transform="translate(977,78)"/>
<path d="M0 0 C1.15435547 0.0012085 1.15435547 0.0012085 2.33203125 0.00244141 C14.8870229 0.13111998 27.57622724 1.33236969 39.8125 4.1875 C38.64609974 9.72790125 37.32042437 15.21347143 35.875 20.6875 C35.55660156 21.8940625 35.23820312 23.100625 34.91015625 24.34375 C33.90137853 27.87626701 32.78227747 31.34033239 31.60424805 34.81835938 C30.78627427 37.26597501 30.00878001 39.72333334 29.2421875 42.1875 C28.98566406 43.01121094 28.72914063 43.83492188 28.46484375 44.68359375 C27.93707874 46.38358053 27.41109774 48.08412197 26.88671875 49.78515625 C26.63277344 50.59855469 26.37882812 51.41195312 26.1171875 52.25 C25.89015137 52.98347656 25.66311523 53.71695313 25.42919922 54.47265625 C24.8125 56.1875 24.8125 56.1875 23.8125 57.1875 C21.59394736 57.27533542 19.37261504 57.29444609 17.15234375 57.28515625 C16.15564415 57.28303383 16.15564415 57.28303383 15.1388092 57.28086853 C13.00916101 57.27525518 10.87961661 57.26270054 8.75 57.25 C7.30924631 57.24498671 5.86849097 57.24042351 4.42773438 57.23632812 C0.88928898 57.22528145 -2.64909539 57.20800792 -6.1875 57.1875 C-5.58614362 50.17858767 -4.10491879 44.06341003 -1.91601562 37.40625 C-0.47140095 32.8070686 0.0593607 29.01077834 -0.1875 24.1875 C-5.00572322 24.36159607 -5.00572322 24.36159607 -8.8125 26.91796875 C-13.39522724 34.48207252 -14.75728952 44.74184907 -12.671875 53.3046875 C-8.78481301 62.79369178 1.78713368 69.36494501 9.71875 75.30078125 C13.22845336 78.46344305 14.62105288 81.01667716 15.38671875 85.69921875 C16.22116207 103.02866781 10.38462071 126.6225051 -0.3125 140.5625 C-6.19813283 146.80101874 -13.89274343 148.57307359 -22.1875 149.1875 C-19.05308861 154.08358786 -15.5605034 158.57034407 -11.875 163.0625 C-11.30048096 163.76632812 -10.72596191 164.47015625 -10.1340332 165.1953125 C-6.24558357 169.94255071 -2.30482492 174.63598445 1.8125 179.1875 C0.122356 182.92442389 -1.33367103 184.53585901 -5.1875 186.1875 C-9.10445517 184.93757731 -10.7481905 182.39835215 -13.0625 179.125 C-17.63317627 172.83745869 -22.51272869 166.8578512 -27.48974609 160.88842773 C-28.06934082 160.19177002 -28.64893555 159.4951123 -29.24609375 158.77734375 C-30.02424438 157.84716431 -30.02424438 157.84716431 -30.81811523 156.89819336 C-32.1875 155.1875 -32.1875 155.1875 -34.1875 152.1875 C-37.25756858 151.87355002 -40.17448144 151.7265063 -43.25 151.6875 C-50.12744969 151.47790509 -56.78925971 150.98466192 -63.5625 149.75 C-64.58549194 149.56630859 -64.58549194 149.56630859 -65.62915039 149.37890625 C-69.60624844 148.6167325 -73.37640579 147.55029065 -77.1875 146.1875 C-76.61448053 141.39500802 -75.64026318 137.0854871 -74.0859375 132.51953125 C-73.67859375 131.29685547 -73.27125 130.07417969 -72.8515625 128.81445312 C-72.20560167 126.89752737 -71.55629654 124.98184157 -70.90234375 123.06762695 C-70.26703875 121.20046747 -69.64504886 119.32879413 -69.0234375 117.45703125 C-68.64751465 116.34948486 -68.2715918 115.24193848 -67.88427734 114.10083008 C-67.18701023 111.18545218 -67.07030507 109.91457282 -68.1875 107.1875 C-70.22540195 104.07568292 -72.39205151 101.07739411 -74.5703125 98.0625 C-76.1875 95.1875 -76.1875 95.1875 -75.9296875 92.8125 C-75.68476563 92.27625 -75.43984375 91.74 -75.1875 91.1875 C-72.5475 90.8575 -69.9075 90.5275 -67.1875 90.1875 C-65.8675 92.1675 -64.5475 94.1475 -63.1875 96.1875 C-62.5275 94.5375 -61.8675 92.8875 -61.1875 91.1875 C-50.9575 91.1875 -40.7275 91.1875 -30.1875 91.1875 C-32.42790067 101.26930301 -32.42790067 101.26930301 -33.6953125 105.44921875 C-33.95957031 106.34060547 -34.22382813 107.23199219 -34.49609375 108.15039062 C-35.04423164 109.97970248 -35.59637279 111.80781918 -36.15234375 113.63476562 C-37.51109998 118.24315805 -38.67448132 122.32554132 -38.1875 127.1875 C-37.08826459 128.49496709 -37.08826459 128.49496709 -34.375 128.5 C-30.40816578 128.11109468 -29.69588522 127.19655082 -27.1875 124.1875 C-25.90245597 121.5399098 -25.90245597 121.5399098 -25 118.6875 C-24.67644531 117.7490625 -24.35289062 116.810625 -24.01953125 115.84375 C-21.67330009 108.35343456 -19.90722907 99.90058509 -22.1875 92.1875 C-25.26460067 87.40564758 -29.81790269 83.99993517 -34.30883789 80.60986328 C-40.87030118 75.64208094 -45.73783132 71.29862518 -48.1875 63.1875 C-49.06581854 55.81798921 -48.51897825 49.58582208 -46.05224609 42.6394043 C-45.1343002 40.03665708 -44.31260303 37.41599115 -43.50390625 34.77734375 C-43.21580078 33.84986328 -42.92769531 32.92238281 -42.63085938 31.96679688 C-42.04285575 30.06980071 -41.45953105 28.17134801 -40.88085938 26.27148438 C-37.92309323 16.80531522 -35.31692032 9.05652417 -26.1875 4.1875 C-17.71746596 1.07208518 -8.99185839 -0.01003556 0 0 Z " fill="#FCFCFC" transform="translate(437.1875,351.8125)"/>
<path d="M0 0 C0.33 0.66 0.66 1.32 1 2 C0.34 3.65 -0.32 5.3 -1 7 C4.61 7 10.22 7 16 7 C13.3479448 9.6520552 11.48098135 11.51242421 8.49511719 13.48266602 C7.82631531 13.92735733 7.15751343 14.37204865 6.46844482 14.83021545 C5.75182678 15.30003342 5.03520874 15.76985138 4.296875 16.25390625 C3.54142395 16.75486313 2.7859729 17.25582001 2.00762939 17.7719574 C-0.40869843 19.37321163 -2.82911463 20.96814645 -5.25 22.5625 C-8.40242317 24.64505098 -11.55319309 26.7300893 -14.703125 28.81640625 C-15.86587952 29.58641464 -15.86587952 29.58641464 -17.05212402 30.37197876 C-22.3475062 33.88565752 -27.61692837 37.43514888 -32.859375 41.02734375 C-33.83260712 41.69196373 -33.83260712 41.69196373 -34.82550049 42.37001038 C-38.33312982 44.78465963 -41.70814315 47.29239687 -45 50 C-38.84702447 55.88718825 -32.47415722 61.29530497 -25.6875 66.4375 C-24.9668335 66.98365967 -24.24616699 67.52981934 -23.50366211 68.0925293 C-21.33725877 69.73032925 -19.16879386 71.36536745 -17 73 C-14.3651176 74.9874365 -11.74093978 76.98771197 -9.125 79 C-8.54838623 79.4323999 -7.97177246 79.8647998 -7.37768555 80.31030273 C-2.83699566 83.82035525 -0.31910371 86.76627406 0.5 92.5 C0 96 0 96 -1.875 98.9375 C-6.34536304 101.88793961 -9.79295449 102.04901063 -15 101 C-33.10314128 93.5342084 -45.84692478 74.27319751 -57 59 C-61.81214851 60.59477754 -65.50361443 63.30689427 -69.5625 66.25 C-71.08553703 67.34040333 -72.60899186 68.43022328 -74.1328125 69.51953125 C-74.92848633 70.09010254 -75.72416016 70.66067383 -76.54394531 71.24853516 C-80.65194899 74.17803997 -84.79736756 77.05368361 -88.9375 79.9375 C-97.61898093 86.00161654 -106.21777837 92.17359376 -114.78662109 98.39550781 C-117.00695703 100.00504319 -119.23126042 101.60892787 -121.45703125 103.2109375 C-138.65906179 115.59384631 -155.67360979 128.20063516 -172.50146484 141.08789062 C-174.86969359 142.90027753 -177.24085109 144.70874282 -179.61328125 146.515625 C-192.68734408 156.47813371 -205.58822917 166.62520998 -218.328125 177.01171875 C-221.20612454 179.35721533 -224.09655836 181.68601547 -227 184 C-251.58817984 203.2691092 -251.58817984 203.2691092 -274.4375 224.5 C-278.08574996 228.2167617 -282.11216793 231.40815718 -286.1640625 234.671875 C-289.77270433 237.63434129 -293.22422477 240.74792051 -296.67578125 243.890625 C-298.72042335 245.74626657 -300.78784149 247.56756376 -302.875 249.375 C-306.83975714 252.82610439 -310.70421666 256.38392084 -314.56884766 259.94604492 C-317.42458751 262.57323507 -320.3083845 265.1570158 -323.25 267.6875 C-326.03438412 270.08982725 -328.62084306 272.61642835 -331.1875 275.25 C-333.92122459 278.03225224 -336.47505811 280.23752905 -340 282 C-340.23014028 276.36156315 -340.41390199 271.19917353 -338 266 C-335.39668948 263.24126796 -332.53014136 260.84104365 -329.62890625 258.40283203 C-326.43769472 255.65452546 -323.38501325 252.75440783 -320.3125 249.875 C-319.69544189 249.30128662 -319.07838379 248.72757324 -318.44262695 248.13647461 C-314.76072072 244.70124086 -311.16548238 241.19704464 -307.63427734 237.60693359 C-305.28735142 235.29927503 -302.79880919 233.16995121 -300.30859375 231.01953125 C-297.46265397 228.52993587 -294.66424396 225.99016396 -291.875 223.4375 C-291.35454102 222.96151367 -290.83408203 222.48552734 -290.29785156 221.99511719 C-287.64904372 219.559568 -285.0611798 217.08907131 -282.5625 214.5 C-280 212 -280 212 -277.5625 210.5625 C-274.50328575 208.69712546 -272.3412699 206.42328542 -269.85546875 203.86328125 C-268.12934572 202.12989033 -266.35688527 200.52854053 -264.5 198.9375 C-260.39489656 195.40165895 -256.45001646 191.70667803 -252.5 188 C-248.06595157 183.84210011 -243.61876914 179.72394772 -239.0078125 175.76171875 C-236.8834041 173.89769503 -234.80955901 171.98316615 -232.73730469 170.06152344 C-228.4474675 166.08524712 -224.12588296 162.22784112 -219.5625 158.5625 C-215.37759659 155.19651294 -211.4171199 151.66798463 -207.5 148 C-202.76671465 143.57260252 -197.9133273 139.38608943 -192.85546875 135.328125 C-190.22792633 133.18583323 -187.66589013 130.98861095 -185.11108398 128.76123047 C-165.44698337 111.64397793 -143.82468348 97.14385005 -122.26513672 82.5640564 C-116.77156793 78.8480638 -111.29020113 75.11434162 -105.8125 71.375 C-97.83624646 65.93321545 -89.85758028 60.49499869 -81.875 55.0625 C-80.86800049 54.37655762 -79.86100098 53.69061523 -78.82348633 52.98388672 C-73.86184445 49.60838042 -68.88704124 46.25547846 -63.88671875 42.9375 C-59.39098285 39.9465322 -54.95331225 36.88609439 -50.54125977 33.7734375 C-33.97643921 22.093414 -16.97474958 11.07105828 0 0 Z " fill="#F83C22" transform="translate(496,494)"/>
<path d="M0 0 C0.99 0.495 0.99 0.495 2 1 C-10.74772144 11.99839909 -23.72777894 22.64183945 -37 33 C-37.67417969 33.52722656 -38.34835937 34.05445313 -39.04296875 34.59765625 C-48.07278818 41.6579402 -57.14239727 48.66531929 -66.25 55.625 C-67.13115479 56.30006592 -68.01230957 56.97513184 -68.92016602 57.6706543 C-81.34000591 67.13846285 -81.34000591 67.13846285 -89.1875 68.875 C-99.35243614 71.35513915 -108.02356352 75.11906804 -114 84 C-115.49281364 87.20849219 -116.54308325 90.4901133 -117.5625 93.875 C-117.85423096 94.79611572 -118.14596191 95.71723145 -118.4465332 96.66625977 C-119.31782104 99.43845228 -120.1631063 102.21725272 -121 105 C-121.24137695 105.79422363 -121.48275391 106.58844727 -121.73144531 107.40673828 C-123.53810326 113.37077721 -125.25296848 119.35925895 -126.94921875 125.35546875 C-130.13862185 136.61931009 -133.56911756 147.80768621 -137 159 C-137.66 159 -138.32 159 -139 159 C-139.2902002 158.4237085 -139.58040039 157.84741699 -139.87939453 157.25366211 C-150.5527957 136.16673027 -162.18568095 115.1158499 -176.38623047 96.1484375 C-180 91.29794445 -180 91.29794445 -180 88 C-179.14696289 87.69932617 -178.29392578 87.39865234 -177.41503906 87.08886719 C-157.61514735 80.07916509 -138.16795172 72.61966309 -119 64 C-117.87352051 63.49388184 -116.74704102 62.98776367 -115.58642578 62.46630859 C-89.35605776 50.61273912 -63.44755209 37.98399499 -38.56689453 23.49072266 C-36.04134179 22.02400922 -33.50519296 20.5776251 -30.96484375 19.13671875 C-22.18690454 14.1376351 -13.60729388 8.94821729 -5.25244141 3.26318359 C-3.53890537 2.11762908 -1.7736395 1.05009704 0 0 Z " fill="#103D8F" transform="translate(789,285)"/>
<path d="M0 0 C3.46721835 3.43330736 6.71134603 6.9177722 9.8125 10.6875 C10.60269531 11.64011719 11.39289063 12.59273438 12.20703125 13.57421875 C14 16 14 16 14 18 C-0.52 18 -15.04 18 -30 18 C-30.66 21.3 -31.32 24.6 -32 28 C-32.89536264 31.02480281 -33.81737213 34.00980746 -34.8125 37 C-36.46654492 42.02214431 -38.04566848 47.01956009 -39.29296875 52.16015625 C-39.49752686 52.98322266 -39.70208496 53.80628906 -39.9128418 54.65429688 C-40.29637933 56.22735894 -40.659488 57.8055815 -40.99926758 59.38867188 C-41.53125 61.53515625 -41.53125 61.53515625 -43 65 C-45.66015625 66.35546875 -45.66015625 66.35546875 -49 67 C-50.22589844 67.35578125 -51.45179688 67.7115625 -52.71484375 68.078125 C-54.12179334 68.47091453 -55.52938538 68.8614077 -56.9375 69.25 C-57.70747314 69.46325928 -58.47744629 69.67651855 -59.27075195 69.89624023 C-68.62193438 72.46964561 -78.01361126 74.88854708 -87.40136719 77.32421875 C-90.87436141 78.22737997 -94.34416893 79.14157269 -97.8125 80.0625 C-98.96363281 80.36671875 -100.11476563 80.6709375 -101.30078125 80.984375 C-104.10316073 81.75377169 -106.88486827 82.5565425 -109.66796875 83.390625 C-110.47065186 83.62644287 -111.27333496 83.86226074 -112.1003418 84.10522461 C-113.65350569 84.56300422 -115.20346317 85.03186934 -116.74926758 85.51391602 C-121.48721682 86.89910253 -125.10245863 87.29323831 -130 86 C-132.0390625 84.51171875 -132.0390625 84.51171875 -133.625 82.6875 C-135.61316743 80.49028588 -137.26317154 78.81027168 -139.6875 77.0625 C-143.61394351 73.56053687 -145.58359769 69.70030592 -146.38671875 64.4921875 C-146.71094373 56.82258968 -145.31708978 47.39514396 -140.59375 41.13671875 C-137.93043379 39.23714763 -135.14928894 39.82173836 -132 40 C-130.39082646 46.63090478 -131.95514852 51.74959803 -133.875 58.1875 C-134.15730469 59.17169922 -134.43960937 60.15589844 -134.73046875 61.16992188 C-135.25384104 62.99428357 -135.78296056 64.81701398 -136.31982422 66.63745117 C-136.92669591 68.74538273 -137.46798559 70.87194235 -138 73 C-128.1 72.67 -118.2 72.34 -108 72 C-107.113125 69.215625 -106.22625 66.43125 -105.3125 63.5625 C-105.01359863 62.63759766 -104.71469727 61.71269531 -104.40673828 60.75976562 C-103.06235452 56.56291335 -101.81456773 52.38443283 -100.8046875 48.09375 C-100.61479248 47.3298999 -100.42489746 46.5660498 -100.22924805 45.77905273 C-99.8769981 44.3378282 -99.55380517 42.88908278 -99.26489258 41.43383789 C-98.5516496 38.60958951 -97.71393911 36.49978788 -95.28588867 34.80004883 C-92.89605615 33.68715937 -90.50318572 32.82776289 -88 32 C-87.06615479 31.67217529 -86.13230957 31.34435059 -85.17016602 31.0065918 C-81.76835727 29.83023517 -78.35351425 28.69692598 -74.9375 27.5625 C-58.48224772 22.03570392 -42.24307569 15.92775068 -26 9.8125 C-25.35715435 9.57053516 -24.7143087 9.32857033 -24.05198288 9.07927322 C-16.03191778 6.06008938 -8.01458693 3.03369679 0 0 Z " fill="#F93F24" transform="translate(569,336)"/>
<path d="M0 0 C-0.9952099 6.77004628 -2.50685295 12.97239561 -5.00390625 19.34765625 C-6.21744376 22.57899731 -7.08595153 25.8696358 -7.8984375 29.22265625 C-10.48287484 33.39258174 -18.90037327 34.10244885 -23.5625 35.35546875 C-25.25324747 35.81401893 -26.94391846 36.27285117 -28.63452148 36.73193359 C-29.51147675 36.96966492 -30.38843201 37.20739624 -31.29196167 37.45233154 C-45.912871 41.42156316 -60.42382177 45.56288409 -74.81640625 50.30175781 C-77.51451844 51.16452624 -80.23276921 51.93437323 -82.9609375 52.69555664 C-103.44741482 58.44219572 -123.39653763 66.17681175 -143.0625 74.25 C-143.76253143 74.5359201 -144.46256287 74.82184021 -145.18380737 75.11642456 C-157.74704725 80.26452815 -169.77647211 86.2228394 -181.75 92.625 C-190.78717479 97.42445717 -199.93232966 101.99834408 -209.10449219 106.53369141 C-215.6938707 109.79850316 -215.6938707 109.79850316 -222.109375 113.38671875 C-225 115 -225 115 -227.5 114.9375 C-230.7227565 113.72896631 -233.86162389 112.41534609 -237 111 C-237 110.34 -237 109.68 -237 109 C-235.54492188 107.89355469 -235.54492188 107.89355469 -233.46875 106.671875 C-232.68975342 106.2087793 -231.91075684 105.74568359 -231.1081543 105.26855469 C-230.24746338 104.76743164 -229.38677246 104.26630859 -228.5 103.75 C-227.61159424 103.22567383 -226.72318848 102.70134766 -225.80786133 102.16113281 C-223.88519186 101.02840764 -221.96037286 99.89932506 -220.03369141 98.7734375 C-216.96941145 96.98211853 -213.91204783 95.1794223 -210.85546875 93.375 C-182.63307242 76.75757448 -182.63307242 76.75757448 -173.421875 73.2109375 C-167.58040064 70.91705019 -162.06218887 68.06981991 -156.48486328 65.20306396 C-139.34154315 56.41818133 -121.79590524 48.62321073 -104.14050293 40.9342041 C-101.43005353 39.75125176 -98.72355833 38.5594364 -96.01724243 37.36706543 C-71.06075588 26.37671744 -45.7664357 16.35385249 -20.25 6.75 C-19.35226868 6.41131897 -18.45453735 6.07263794 -17.52960205 5.72369385 C-14.98471562 4.76502658 -12.43805079 3.81127099 -9.890625 2.859375 C-9.12126617 2.56938629 -8.35190735 2.27939758 -7.55923462 1.98062134 C-2.23071547 0 -2.23071547 0 0 0 Z " fill="#F83C22" transform="translate(283,435)"/>
<path d="M0 0 C3.12915801 2.6862618 4.7642676 5.95391929 6.6875 9.5625 C7.31011719 10.71878906 7.93273437 11.87507813 8.57421875 13.06640625 C10 16 10 16 10 18 C10.64211426 17.764021 11.28422852 17.52804199 11.94580078 17.28491211 C23.69392692 12.97976945 35.45637252 8.74989282 47.375 4.9375 C48.30070801 4.63900146 49.22641602 4.34050293 50.18017578 4.03295898 C51.03595215 3.76298096 51.89172852 3.49300293 52.7734375 3.21484375 C53.52028809 2.97886475 54.26713867 2.74288574 55.03662109 2.49975586 C57 2 57 2 60 2 C59.67 2.99 59.34 3.98 59 5 C58.1801891 14.00620832 58.312943 21.67991257 64 29 C68.70564612 34.0227874 73.85909876 38.94345752 79.625 42.71875 C82.06234308 44.35525178 83.47425803 45.47785512 85 48 C86.88689825 59.38072594 85.07897744 71.88427647 78.875 81.75 C77 84 77 84 75 85 C72 85.1875 72 85.1875 69 85 C68.34 84.34 67.68 83.68 67 83 C67.33228379 76.13054117 68.97519973 69.87702969 70.9375 63.3125 C71.20240234 62.40177734 71.46730469 61.49105469 71.74023438 60.55273438 C73.07341184 55.99743569 74.49797372 51.50607883 76 47 C65.77 47 55.54 47 45 47 C44.67 48.98 44.34 50.96 44 53 C40.125 49.25 40.125 49.25 39 47 C31.70304027 48.24228046 24.54051696 49.76584657 17.37109375 51.6015625 C16.41477554 51.8428891 15.45845734 52.0842157 14.47315979 52.33285522 C11.46039209 53.09347161 8.44885607 53.85881556 5.4375 54.625 C2.3938957 55.3978568 -0.64996675 56.16963507 -3.69456482 56.93856812 C-5.57933773 57.41470588 -7.46352589 57.89316565 -9.34706116 58.37417603 C-10.19231857 58.58794891 -11.03757599 58.8017218 -11.90844727 59.02197266 C-12.65248306 59.21135406 -13.39651886 59.40073547 -14.1631012 59.59585571 C-16 60 -16 60 -18 60 C-16.84382292 52.83170211 -14.80941954 46.23110123 -12.46118164 39.38916016 C-9.82758352 31.64814642 -7.59777479 23.80985863 -5.39453125 15.9375 C-4.4093948 12.43229605 -3.41097016 8.9314939 -2.38671875 5.4375 C-2.14526123 4.61121094 -1.90380371 3.78492188 -1.6550293 2.93359375 C-1 1 -1 1 0 0 Z " fill="#F93E23" transform="translate(331,396)"/>
<path d="M0 0 C0.66 0 1.32 0 2 0 C3.55859375 2.02734375 3.55859375 2.02734375 5.4375 4.9375 C6.14390625 6.02417969 6.8503125 7.11085938 7.578125 8.23046875 C7.96419922 8.83165527 8.35027344 9.4328418 8.74804688 10.05224609 C10.09005281 12.14010167 11.44265838 14.22082679 12.796875 16.30078125 C17.69606403 23.83704428 17.69606403 23.83704428 19.68115234 26.95507812 C20.59277417 28.36858135 21.52702283 29.76765426 22.47900391 31.15429688 C23.17968994 32.1994043 23.17968994 32.1994043 23.89453125 33.265625 C24.3222583 33.88727539 24.74998535 34.50892578 25.19067383 35.14941406 C26.25596407 37.58528133 25.94075936 38.53685678 25 41 C23.35014343 42.49258423 23.35014343 42.49258423 21.1862793 43.90087891 C20.37841476 44.4346817 19.57055023 44.9684845 18.73820496 45.51846313 C17.85908951 46.08213593 16.97997406 46.64580872 16.07421875 47.2265625 C14.72551445 48.10989761 14.72551445 48.10989761 13.3495636 49.01107788 C10.46920895 50.89338253 7.57844264 52.75900829 4.6875 54.625 C2.74998388 55.88960342 0.81312638 57.15521654 -1.12304688 58.421875 C-4.67761453 60.7397476 -8.23266135 63.05678105 -11.7980957 65.35791016 C-12.87278862 66.05262924 -12.87278862 66.05262924 -13.9691925 66.76138306 C-15.93468009 67.9601605 -17.92585296 69.00330331 -20 70 C-19.7525 68.4221875 -19.7525 68.4221875 -19.5 66.8125 C-17.92621801 54.40285949 -17.92621801 54.40285949 -22 43 C-22.495 41.515 -22.495 41.515 -23 40 C-21.80375 39.525625 -20.6075 39.05125 -19.375 38.5625 C-14.1511958 35.96446641 -11.74414066 32.00259271 -9 27 C-8.5153125 26.13890625 -8.030625 25.2778125 -7.53125 24.390625 C-5.44255232 19.76565156 -4.15316816 15.01099062 -2.8125 10.125 C-2.40354492 8.66320312 -2.40354492 8.66320312 -1.98632812 7.171875 C-1.31876696 4.78270873 -0.65683285 2.39213362 0 0 Z " fill="#124192" transform="translate(605,384)"/>
<path d="M0 0 C4.10860831 1.68764351 7.15576507 4.59548119 10.4375 7.5 C15.04636511 11.51458155 19.70080813 15.41975527 24.5625 19.125 C25.08690674 19.52549561 25.61131348 19.92599121 26.15161133 20.33862305 C28.95262509 22.46801109 31.7711381 24.57259081 34.59765625 26.66796875 C35.18796631 27.11060059 35.77827637 27.55323242 36.38647461 28.00927734 C38.02598711 29.23827857 39.67292367 30.45735797 41.3203125 31.67578125 C45.12062347 34.97196934 46.78851451 37.51960154 47.5 42.5 C47 46 47 46 45.125 48.9375 C40.65463696 51.88793961 37.20704551 52.04901063 32 51 C16.6669061 44.67658453 5.11342859 29.31220348 -4.625 16.4375 C-5.15851074 15.73423584 -5.69202148 15.03097168 -6.24169922 14.30639648 C-6.7317041 13.64712158 -7.22170898 12.98784668 -7.7265625 12.30859375 C-8.16564941 11.71876709 -8.60473633 11.12894043 -9.05712891 10.52124023 C-10 9 -10 9 -10 7 C-7.8125 5.2734375 -7.8125 5.2734375 -5 3.375 C-4.071875 2.74335937 -3.14375 2.11171875 -2.1875 1.4609375 C-1.1046875 0.73777344 -1.1046875 0.73777344 0 0 Z " fill="#FAFBFC" transform="translate(449,544)"/>
<path d="M0 0 C1 2 1 2 0.3984375 4.00390625 C0.06070313 4.84824219 -0.27703125 5.69257813 -0.625 6.5625 C-2.47235609 11.42932777 -4.04926273 16.31732233 -5.5 21.3125 C-5.82049316 22.41549438 -5.82049316 22.41549438 -6.14746094 23.54077148 C-7.40609857 27.8976309 -8.64029093 32.261306 -9.875 36.625 C-12.7636919 46.79510538 -15.90158442 56.89226823 -19 67 C-19.66 67 -20.32 67 -21 67 C-21.32162109 66.37657715 -21.64324219 65.7531543 -21.97460938 65.11083984 C-28.09143701 53.27202973 -34.23356479 41.48303858 -41 30 C-32.93138649 23.80094328 -24.66984925 17.91741197 -16.29589844 12.13818359 C-10.7164589 8.26928567 -5.31684759 4.22246113 0 0 Z " fill="#F63F25" transform="translate(671,377)"/>
<path d="M0 0 C2.5 0.25 2.5 0.25 4.5 2.25 C3.12752843 10.74102412 0.31692131 19.0107254 -2.125 27.25 C-2.3458728 27.99855255 -2.56674561 28.7471051 -2.79431152 29.51834106 C-6.54861712 42.23504487 -10.50272128 54.8793235 -14.60498047 67.48828125 C-16.02868387 71.88133439 -17.4219051 76.28387672 -18.8125 80.6875 C-19.05814697 81.46013184 -19.30379395 82.23276367 -19.55688477 83.02880859 C-21.07838017 87.83336356 -22.50081333 92.65450874 -23.76171875 97.53515625 C-24.5 99.25 -24.5 99.25 -27.5 101.25 C-30.125 101.4375 -30.125 101.4375 -32.5 101.25 C-32.83 100.92 -33.16 100.59 -33.5 100.25 C-33.19123186 92.64455313 -30.9789691 85.93138441 -28.55227661 78.75518799 C-27.38504253 75.2994009 -26.24804406 71.83375057 -25.11328125 68.3671875 C-24.88533371 67.67160736 -24.65738617 66.97602722 -24.42253113 66.2593689 C-22.44607045 60.18084957 -20.71977285 54.04791897 -19.0625 47.875 C-16.27063781 37.57310559 -13.04597737 27.44054712 -9.6875 17.3125 C-9.44444122 16.5732428 -9.20138245 15.8339856 -8.95095825 15.07232666 C-8.25939184 12.97421479 -7.55911524 10.87924353 -6.85546875 8.78515625 C-6.44965576 7.572229 -6.04384277 6.35930176 -5.62573242 5.10961914 C-4.29283496 1.72375317 -3.72084716 0.37208472 0 0 Z " fill="#174696" transform="translate(709.5,376.75)"/>
<path d="M0 0 C1.54296875 2.046875 1.54296875 2.046875 3.1875 4.75 C4.01314453 6.07257813 4.01314453 6.07257813 4.85546875 7.421875 C6 10 6 10 5.80989075 11.97982788 C4.75600006 14.60862763 3.54954402 15.36280955 1.1862793 16.90087891 C0.37841476 17.4346817 -0.42944977 17.9684845 -1.26179504 18.51846313 C-2.14091049 19.08213593 -3.02002594 19.64580872 -3.92578125 20.2265625 C-5.27448555 21.10989761 -5.27448555 21.10989761 -6.6504364 22.01107788 C-9.53079105 23.89338253 -12.42155736 25.75900829 -15.3125 27.625 C-17.25001612 28.88960342 -19.18687362 30.15521654 -21.12304688 31.421875 C-24.67761453 33.7397476 -28.23266135 36.05678105 -31.7980957 38.35791016 C-32.51455765 38.82105621 -33.23101959 39.28420227 -33.9691925 39.76138306 C-35.93468009 40.9601605 -37.92585296 42.00330331 -40 43 C-39.7543073 41.17485426 -39.49992721 39.35065905 -39.21484375 37.53125 C-38.90328176 34.95336905 -38.90328176 34.95336905 -39.37890625 32.21875 C-39.68677598 28.50476592 -39.51302629 26.44063888 -38 23 C-33.27127967 18.56099505 -27.28402325 15.6191401 -21.64501953 12.50537109 C-17.44688832 10.11607102 -13.45418807 7.4293929 -9.4375 4.75 C-2.29449848 0 -2.29449848 0 0 0 Z " fill="#F63E25" transform="translate(625,411)"/>
<path d="M0 0 C8.24239546 6.45436258 8.24239546 6.45436258 9.05859375 12.30078125 C9.64069678 23.27417604 7.36470447 35.71860463 0.203125 44.3125 C-2.55937536 45.69375018 -4.74418599 45.50329306 -7.796875 45.3125 C-8.456875 44.6525 -9.116875 43.9925 -9.796875 43.3125 C-9.46459121 36.44304117 -7.82167527 30.18952969 -5.859375 23.625 C-5.59447266 22.71427734 -5.32957031 21.80355469 -5.05664062 20.86523438 C-3.72346316 16.30993569 -2.29890128 11.81857883 -0.796875 7.3125 C-11.026875 7.3125 -21.256875 7.3125 -31.796875 7.3125 C-32.126875 9.2925 -32.456875 11.2725 -32.796875 13.3125 C-35.49065551 10.79830485 -37.24492746 8.64009923 -38.796875 5.3125 C-34.31586663 4.14276345 -29.8318911 2.98549455 -25.34472656 1.83959961 C-23.81910981 1.44814567 -22.29435529 1.05331504 -20.77050781 0.6550293 C-18.57836033 0.08269875 -16.38338588 -0.47736558 -14.1875 -1.03515625 C-13.5081842 -1.21530777 -12.82886841 -1.39545929 -12.12896729 -1.58106995 C-6.92930407 -2.88221236 -4.5281085 -2.73204312 0 0 Z " fill="#184493" transform="translate(407.796875,435.6875)"/>
<path d="M0 0 C2.72705554 -0.22111261 4.46420662 -0.30361625 6.875 1.0625 C8.98335435 4.69355472 7.21759714 9.09919463 6.2734375 13.0078125 C5.42935807 15.93640112 4.56134516 18.85642636 3.66845703 21.77050781 C3.18751438 23.3745868 2.7244675 24.9840711 2.27294922 26.59667969 C1.484634 29.40805652 0.6518002 32.20346533 -0.1875 35 C-0.43000488 35.89605957 -0.67250977 36.79211914 -0.92236328 37.71533203 C-2.85704891 43.93321293 -5.39261241 46.69253196 -10.9699707 50.0390625 C-13 51 -13 51 -15 51 C-14.4051728 45.63955726 -13.10964509 40.94698077 -11.3125 35.875 C-8.5922334 27.98805814 -6.22836909 20.03405015 -4.00512695 11.99365234 C-2.86382533 7.89346431 -1.70898717 3.90971121 0 0 Z " fill="#1C4997" transform="translate(547,437)"/>
<path d="M0 0 C1.11649333 3.84177994 0.68014087 5.95324899 -0.5 9.8125 C-0.86609375 11.02808594 -1.2321875 12.24367188 -1.609375 13.49609375 C-1.82400391 14.1907373 -2.03863281 14.88538086 -2.25976562 15.60107422 C-3.12630505 18.40932501 -3.97740333 21.22207404 -4.828125 24.03515625 C-6.54158724 29.6933331 -8.26734101 35.34767483 -10 41 C-10.66 41 -11.32 41 -12 41 C-15.96 33.41 -19.92 25.82 -24 18 C-20.6385953 14.6385953 -18.14641361 12.22105406 -14.35546875 9.66796875 C-13.51435547 9.09755859 -12.67324219 8.52714844 -11.80664062 7.93945312 C-10.94232422 7.36130859 -10.07800781 6.78316406 -9.1875 6.1875 C-8.30384766 5.59001953 -7.42019531 4.99253906 -6.50976562 4.37695312 C-4.34311974 2.9130032 -2.17318933 1.45421072 0 0 Z " fill="#144292" transform="translate(662,403)"/>
<path d="M0 0 C4.47298829 -0.36267473 4.47298829 -0.36267473 6.81640625 1.25 C8.71867579 4.06259654 8.06082772 6.16516619 7.58203125 9.40625 C6.73670689 13.17333304 5.43648723 16.69887278 4.0390625 20.29296875 C3.08478239 22.77911956 2.27856511 25.26719098 1.5 27.8125 C-0.03358041 32.43811011 -1.89184655 36.59456437 -6.0625 39.375 C-8 40 -8 40 -11 40 C-10.44548095 34.08067618 -9.17568507 28.96271766 -7.1875 23.375 C-4.51895867 15.64637608 -2.15626802 7.88940415 0 0 Z " fill="#1B4795" transform="translate(566,374)"/>
<path d="M0 0 C-0.67564721 2.60021807 -1.37406294 5.19104944 -2.1015625 7.77734375 C-2.69490606 9.90564131 -3.25303946 12.04410726 -3.7734375 14.19140625 C-5.66250267 21.11509005 -7.70835893 24.4858952 -13.9765625 28.109375 C-16 29 -16 29 -18 29 C-16.94332004 20.54656032 -15.6901029 10.75392543 -9.515625 4.47265625 C-3.18622188 0 -3.18622188 0 0 0 Z " fill="#F6462D" transform="translate(550,459)"/>
<path d="M0 0 C3.1049985 2.68333204 4.80081956 5.9238177 6.75 9.5 C7.38421875 10.6446875 8.0184375 11.789375 8.671875 12.96875 C10 16 10 16 9 19 C6.67359006 20.04409043 4.47250358 20.89690418 2.0625 21.6875 C1.41603516 21.91244141 0.76957031 22.13738281 0.10351562 22.36914062 C-4.67009403 24 -4.67009403 24 -7 24 C-3.47956403 3.47956403 -3.47956403 3.47956403 0 0 Z " fill="#194695" transform="translate(331,396)"/>
<path d="M0 0 C5 0 5 0 6.83203125 1.20703125 C8.39465438 3.60584066 8.13281236 4.89417703 7.6875 7.6875 C7.50767578 8.89986328 7.50767578 8.89986328 7.32421875 10.13671875 C7.21722656 10.75160156 7.11023438 11.36648438 7 12 C5.73392393 12.53229326 4.46189588 13.05044544 3.1875 13.5625 C2.47980469 13.85253906 1.77210938 14.14257812 1.04296875 14.44140625 C-1 15 -1 15 -4 14 C-2.68 9.38 -1.36 4.76 0 0 Z " fill="#FA4930" transform="translate(566,374)"/>
<path d="M0 0 C7.95953757 2.59421965 7.95953757 2.59421965 11.34375 3.9140625 C20.63592938 7.53095511 30.31823931 9.69515763 40 12 C39.34 12.99 38.68 13.98 38 15 C30.46701334 14.4712066 23.83083348 12.08741774 16.75 9.5625 C15.57953125 9.15451172 14.4090625 8.74652344 13.203125 8.32617188 C3.85319186 5.03975615 3.85319186 5.03975615 0 3 C0 2.01 0 1.02 0 0 Z " fill="#E3E9F2" transform="translate(569,630)"/>
<path d="M0 0 C0.33 0 0.66 0 1 0 C1 2.64 1 5.28 1 8 C2.32 8.33 3.64 8.66 5 9 C5 9.66 5 10.32 5 11 C7.64 11.33 10.28 11.66 13 12 C13 12.33 13 12.66 13 13 C10.36 13 7.72 13 5 13 C3.58622659 15.63904371 2.62759865 18.07120629 2 21 C1.34 21 0.68 21 0 21 C-1.07525194 18.34771188 -2.09456151 15.71631546 -3 13 C-5.97 13 -8.94 13 -12 13 C-12 12.67 -12 12.34 -12 12 C-8.97265625 11.75585938 -8.97265625 11.75585938 -5.9453125 11.51171875 C-3.60480784 11.12606964 -3.60480784 11.12606964 -2 8 C-1.34 8 -0.68 8 0 8 C0 5.36 0 2.72 0 0 Z " fill="#DCE3EF" transform="translate(556,104)"/>
<path d="M0 0 C0.66 0.33 1.32 0.66 2 1 C2.144375 2.134375 2.28875 3.26875 2.4375 4.4375 C2.623125 5.613125 2.80875 6.78875 3 8 C3.99 8.66 4.98 9.32 6 10 C6 10.66 6 11.32 6 12 C8.64 12 11.28 12 14 12 C14 12.33 14 12.66 14 13 C10.97265625 13.24414062 10.97265625 13.24414062 7.9453125 13.48828125 C5.60480784 13.87393036 5.60480784 13.87393036 4 17 C3.34 17 2.68 17 2 17 C1.67 17.99 1.34 18.98 1 20 C1 19.01 1 18.02 1 17 C0.4225 16.731875 -0.155 16.46375 -0.75 16.1875 C-3.0325868 14.98280141 -4.9737942 13.59201885 -7 12 C-5.68 12 -4.36 12 -3 12 C-0.60926555 8.17482487 -0.44033448 4.40334476 0 0 Z " fill="#DAE1EE" transform="translate(340,698)"/>
<path d="M0 0 C0.33 0 0.66 0 1 0 C1.103125 1.11375 1.20625 2.2275 1.3125 3.375 C1.6528125 5.169375 1.6528125 5.169375 2 7 C2.99 7.66 3.98 8.32 5 9 C5 9.66 5 10.32 5 11 C7.31 11 9.62 11 12 11 C12 11.66 12 12.32 12 13 C9.69 13 7.38 13 5 13 C4.67 13.99 4.34 14.98 4 16 C3.34 16.33 2.68 16.66 2 17 C0.86649466 19.01669827 0.86649466 19.01669827 0 21 C-1.07525194 18.34771188 -2.09456151 15.71631546 -3 13 C-5.31 13 -7.62 13 -10 13 C-10 12.67 -10 12.34 -10 12 C-8.02 12 -6.04 12 -4 12 C-3.34 10.68 -2.68 9.36 -2 8 C-1.34 8 -0.68 8 0 8 C0 5.36 0 2.72 0 0 Z " fill="#DFE5F0" transform="translate(774,535)"/>
<path d="M0 0 C0.33 0 0.66 0 1 0 C1.03738281 0.62648438 1.07476563 1.25296875 1.11328125 1.8984375 C1.21189453 3.12433594 1.21189453 3.12433594 1.3125 4.375 C1.39951172 5.59316406 1.39951172 5.59316406 1.48828125 6.8359375 C1.82990528 9.37921338 1.82990528 9.37921338 5 11 C5 11.66 5 12.32 5 13 C7.31 13 9.62 13 12 13 C9 15 9 15 5 15 C4.67 15.99 4.34 16.98 4 18 C3.34 18 2.68 18 2 18 C1.67 19.32 1.34 20.64 1 22 C0.8453125 21.0409375 0.8453125 21.0409375 0.6875 20.0625 C0.460625 19.381875 0.23375 18.70125 0 18 C-0.99 17.67 -1.98 17.34 -3 17 C-3 16.34 -3 15.68 -3 15 C-4.65 15 -6.3 15 -8 15 C-7.38125 14.731875 -6.7625 14.46375 -6.125 14.1875 C-3.7004767 13.04443152 -3.7004767 13.04443152 -2 10 C-1.34 10 -0.68 10 0 10 C0 6.7 0 3.4 0 0 Z " fill="#E3E8F2" transform="translate(740,617)"/>
<path d="M0 0 C1.670625 0.061875 1.670625 0.061875 3.375 0.125 C3.705 2.435 4.035 4.745 4.375 7.125 C2.77435157 7.65654742 1.16931126 8.17488353 -0.4375 8.6875 C-1.33082031 8.97753906 -2.22414063 9.26757812 -3.14453125 9.56640625 C-5.625 10.125 -5.625 10.125 -8.625 9.125 C-4.97733161 0.17163212 -4.97733161 0.17163212 0 0 Z " fill="#234C97" transform="translate(433.625,375.875)"/>
<path d="M0 0 C0.33 0 0.66 0 1 0 C1 1.98 1 3.96 1 6 C2.32 6.66 3.64 7.32 5 8 C5 8.66 5 9.32 5 10 C6.98 10 8.96 10 11 10 C11 10.33 11 10.66 11 11 C9.02 11 7.04 11 5 11 C4.67 11.99 4.34 12.98 4 14 C3.01 14 2.02 14 1 14 C1 15.98 1 17.96 1 20 C0.67 20 0.34 20 0 20 C0 18.02 0 16.04 0 14 C-0.928125 13.566875 -0.928125 13.566875 -1.875 13.125 C-4 12 -4 12 -6 10 C-5.34 10 -4.68 10 -4 10 C-3.34 8.68 -2.68 7.36 -2 6 C-1.34 6 -0.68 6 0 6 C0 4.02 0 2.04 0 0 Z " fill="#EAEEF5" transform="translate(377,224)"/>
<path d="M0 0 C4.55555556 0.55555556 4.55555556 0.55555556 6 2 C6.1875 4.4375 6.1875 4.4375 6 7 C5.34 7.66 4.68 8.32 4 9 C0.70285207 8.67028521 -0.6226839 8.3773161 -3 6 C-2.63318342 3.06546739 -2.13562754 2.13562754 0 0 Z " fill="#E4E9F2" transform="translate(368,632)"/>
<path d="M0 0 C2.625 0.375 2.625 0.375 5 1 C5.625 3.875 5.625 3.875 6 7 C5.34 7.66 4.68 8.32 4 9 C0.70285207 8.67028521 -0.6226839 8.3773161 -3 6 C-2.63318342 3.06546739 -2.13562754 2.13562754 0 0 Z " fill="#E5EAF3" transform="translate(731,546)"/>
<path d="M0 0 C4.55555556 0.55555556 4.55555556 0.55555556 6 2 C6.1875 4.4375 6.1875 4.4375 6 7 C5.34 7.66 4.68 8.32 4 9 C-0.55555556 8.44444444 -0.55555556 8.44444444 -2 7 C-2.1875 4.5625 -2.1875 4.5625 -2 2 C-1.34 1.34 -0.68 0.68 0 0 Z " fill="#E7ECF4" transform="translate(241,597)"/>
<path d="M0 0 C4.55555556 0.55555556 4.55555556 0.55555556 6 2 C6.1875 4.4375 6.1875 4.4375 6 7 C5.34 7.66 4.68 8.32 4 9 C-0.55555556 8.44444444 -0.55555556 8.44444444 -2 7 C-2.1875 4.5625 -2.1875 4.5625 -2 2 C-1.34 1.34 -0.68 0.68 0 0 Z " fill="#E9EDF4" transform="translate(342,578)"/>
<path d="M0 0 C2.625 0.375 2.625 0.375 5 1 C5.625 3.3125 5.625 3.3125 6 6 C5.01 7.485 5.01 7.485 4 9 C-0.875 8.125 -0.875 8.125 -2 7 C-2.1875 4.5625 -2.1875 4.5625 -2 2 C-1.34 1.34 -0.68 0.68 0 0 Z " fill="#EAEEF5" transform="translate(499,121)"/>
<path d="M0 0 C3 0.125 3 0.125 4 1.125 C4.1875 3.5625 4.1875 3.5625 4 6.125 C3.34 6.785 2.68 7.445 2 8.125 C-2.55555556 7.56944444 -2.55555556 7.56944444 -4 6.125 C-4.125 3.625 -4.125 3.625 -4 1.125 C-3 0.125 -3 0.125 0 0 Z " fill="#F2F4F9" transform="translate(254,631.875)"/>
<path d="M0 0 C2.5 0.125 2.5 0.125 3.5 1.125 C3.625 4.125 3.625 4.125 3.5 7.125 C2.5 8.125 2.5 8.125 0.0625 8.3125 C-2.5 8.125 -2.5 8.125 -4.5 6.125 C-3.77607362 0.18880368 -3.77607362 0.18880368 0 0 Z " fill="#F1F3F8" transform="translate(787.5,569.875)"/>
<path d="M0 0 C2.5625 0.1875 2.5625 0.1875 4.5625 2.1875 C4.00694444 6.74305556 4.00694444 6.74305556 2.5625 8.1875 C0.0625 8.3125 0.0625 8.3125 -2.4375 8.1875 C-3.4375 7.1875 -3.4375 7.1875 -3.5625 4.1875 C-3.39891479 0.26145498 -3.39891479 0.26145498 0 0 Z " fill="#F1F4F8" transform="translate(676.4375,548.8125)"/>
<path d="M0 0 C2.5 0.125 2.5 0.125 3.5 1.125 C3.625 4.125 3.625 4.125 3.5 7.125 C2.5 8.125 2.5 8.125 0.0625 8.3125 C-2.5 8.125 -2.5 8.125 -4.5 6.125 C-3.77607362 0.18880368 -3.77607362 0.18880368 0 0 Z " fill="#F1F4F8" transform="translate(558.5,198.875)"/>
<path d="M0 0 C3 0.125 3 0.125 4 1.125 C4.1875 3.5625 4.1875 3.5625 4 6.125 C3.34 6.785 2.68 7.445 2 8.125 C-2.55555556 7.56944444 -2.55555556 7.56944444 -4 6.125 C-4.125 3.625 -4.125 3.625 -4 1.125 C-3 0.125 -3 0.125 0 0 Z " fill="#F1F3F8" transform="translate(457,115.875)"/>
<path d="M0 0 C0.625 2.375 0.625 2.375 1 5 C-1 7 -1 7 -3.5625 7.1875 C-6 7 -6 7 -7 6 C-7.04080783 4.00041636 -7.04254356 1.99954746 -7 0 C-4.3333581 -1.33332095 -2.83319697 -0.67102033 0 0 Z " fill="#F1F4F8" transform="translate(680,577)"/>
<path d="M0 0 C4.62 0.99 9.24 1.98 14 3 C13.01 4.485 13.01 4.485 12 6 C7.03083364 5.48594831 2.70973649 4.76615118 -2 3 C-1.34 2.01 -0.68 1.02 0 0 Z " fill="#CFD8E9" transform="translate(595,639)"/>
<path d="M0 0 C1.65 0 3.3 0 5 0 C5.33 1.65 5.66 3.3 6 5 C3.625 5.625 3.625 5.625 1 6 C0.34 5.34 -0.32 4.68 -1 4 C-0.625 1.875 -0.625 1.875 0 0 Z " fill="#DBE2EE" transform="translate(372,671)"/>
<path d="M0 0 C2.125 0.375 2.125 0.375 4 1 C4 2.65 4 4.3 4 6 C2.35 6.33 0.7 6.66 -1 7 C-1.625 4.625 -1.625 4.625 -2 2 C-1.34 1.34 -0.68 0.68 0 0 Z " fill="#DBE2EE" transform="translate(459,661)"/>
<path d="M0 0 C1.67542976 0.28604898 3.34385343 0.61781233 5 1 C4.67 2.65 4.34 4.3 4 6 C2.0625 6.5625 2.0625 6.5625 0 7 C-1 6 -1 6 -1.125 3.5 C-1 1 -1 1 0 0 Z " fill="#DBE2EE" transform="translate(350,241)"/>
<path d="M0 0 C1.65 0 3.3 0 5 0 C5.625 1.875 5.625 1.875 6 4 C5.34 4.66 4.68 5.32 4 6 C1.375 5.625 1.375 5.625 -1 5 C-0.67 3.35 -0.34 1.7 0 0 Z " fill="#E0E6F0" transform="translate(329,663)"/>
<path d="M0 0 C0 1.65 0 3.3 0 5 C-1.875 5.625 -1.875 5.625 -4 6 C-4.66 5.34 -5.32 4.68 -6 4 C-6 2.68 -6 1.36 -6 0 C-3.50907189 -1.24546405 -2.58919267 -0.7767578 0 0 Z " fill="#DFE5F0" transform="translate(538,635)"/>
<path d="M0 0 C2.0625 0.4375 2.0625 0.4375 4 1 C4.625 2.875 4.625 2.875 5 5 C4.34 5.66 3.68 6.32 3 7 C0.875 6.625 0.875 6.625 -1 6 C-1.042721 4.33388095 -1.04063832 2.66617115 -1 1 C-0.67 0.67 -0.34 0.34 0 0 Z " fill="#E4E9F2" transform="translate(414,154)"/>
<path d="M0 0 C1.2065625 0.0309375 1.2065625 0.0309375 2.4375 0.0625 C2.4375 1.7125 2.4375 3.3625 2.4375 5.0625 C0.7875 5.3925 -0.8625 5.7225 -2.5625 6.0625 C-2.94468767 4.40635343 -3.27645102 2.73792976 -3.5625 1.0625 C-2.5625 0.0625 -2.5625 0.0625 0 0 Z " fill="#E7EBF3" transform="translate(662.5625,698.9375)"/>
<path d="M0 0 C1.65 0 3.3 0 5 0 C5.33 1.65 5.66 3.3 6 5 C4.34385343 5.38218767 2.67542976 5.71395102 1 6 C0 5 0 5 -0.0625 2.4375 C-0.041875 1.633125 -0.02125 0.82875 0 0 Z " fill="#E5EAF3" transform="translate(645,571)"/>
<path d="M0 0 C1.67542976 0.28604898 3.34385343 0.61781233 5 1 C5 2.65 5 4.3 5 6 C3.35 6 1.7 6 0 6 C-0.38218767 4.34385343 -0.71395102 2.67542976 -1 1 C-0.67 0.67 -0.34 0.34 0 0 Z " fill="#E6EBF3" transform="translate(724,528)"/>
<path d="M0 0 C2.31 0 4.62 0 7 0 C7.125 2.875 7.125 2.875 7 6 C6.34 6.66 5.68 7.32 5 8 C2.525 4.04 2.525 4.04 0 0 Z " fill="#244993" transform="translate(369,441)"/>
<path d="M0 0 C1.2065625 0.0309375 1.2065625 0.0309375 2.4375 0.0625 C2.4375 1.7125 2.4375 3.3625 2.4375 5.0625 C0.7875 5.3925 -0.8625 5.7225 -2.5625 6.0625 C-2.94468767 4.40635343 -3.27645102 2.73792976 -3.5625 1.0625 C-2.5625 0.0625 -2.5625 0.0625 0 0 Z " fill="#E5EAF3" transform="translate(411.5625,173.9375)"/>
<path d="M0 0 C1.32 0 2.64 0 4 0 C4.38218767 1.65614657 4.71395102 3.32457024 5 5 C4 6 4 6 1.4375 6.0625 C0.2309375 6.0315625 0.2309375 6.0315625 -1 6 C-1.042721 4.33388095 -1.04063832 2.66617115 -1 1 C-0.67 0.67 -0.34 0.34 0 0 Z " fill="#E6EBF3" transform="translate(760,628)"/>
<path d="M0 0 C1.65 0.33 3.3 0.66 5 1 C4.67 2.65 4.34 4.3 4 6 C2.35 5.67 0.7 5.34 -1 5 C-0.67 3.35 -0.34 1.7 0 0 Z " fill="#EAEEF5" transform="translate(645,614)"/>
<path d="M0 0 C1.65 0.33 3.3 0.66 5 1 C4.67 2.65 4.34 4.3 4 6 C2.35 5.67 0.7 5.34 -1 5 C-0.67 3.35 -0.34 1.7 0 0 Z " fill="#EDF0F6" transform="translate(731,610)"/>
<path d="M0 0 C1.65 0.33 3.3 0.66 5 1 C4.67 2.65 4.34 4.3 4 6 C2.35 5.67 0.7 5.34 -1 5 C-0.67 3.35 -0.34 1.7 0 0 Z " fill="#EDF1F7" transform="translate(199,604)"/>
<path d="M0 0 C1.65 0 3.3 0 5 0 C5.33 1.65 5.66 3.3 6 5 C4.34385343 5.38218767 2.67542976 5.71395102 1 6 C0 5 0 5 -0.0625 2.4375 C-0.041875 1.633125 -0.02125 0.82875 0 0 Z " fill="#EBEFF5" transform="translate(764,578)"/>
<path d="M0 0 C1.65 0.33 3.3 0.66 5 1 C4.67 2.65 4.34 4.3 4 6 C2.35 5.67 0.7 5.34 -1 5 C-0.67 3.35 -0.34 1.7 0 0 Z " fill="#EDF1F6" transform="translate(341,506)"/>
<path d="M0 0 C1.65 0.33 3.3 0.66 5 1 C4.67 2.65 4.34 4.3 4 6 C2.35 5.67 0.7 5.34 -1 5 C-0.67 3.35 -0.34 1.7 0 0 Z " fill="#EFF2F7" transform="translate(336,225)"/>
<path d="M0 0 C1.65 0.33 3.3 0.66 5 1 C4.67 2.65 4.34 4.3 4 6 C2.35 5.67 0.7 5.34 -1 5 C-0.67 3.35 -0.34 1.7 0 0 Z " fill="#ECEFF6" transform="translate(499,167)"/>
<path d="M0 0 C1.65 0.33 3.3 0.66 5 1 C4.67 2.65 4.34 4.3 4 6 C2.35 5.67 0.7 5.34 -1 5 C-0.67 3.35 -0.34 1.7 0 0 Z " fill="#E9EDF4" transform="translate(423,161)"/>
<path d="M0 0 C1.65 0.33 3.3 0.66 5 1 C4.67 2.65 4.34 4.3 4 6 C2.35 5.67 0.7 5.34 -1 5 C-0.67 3.35 -0.34 1.7 0 0 Z " fill="#F0F2F7" transform="translate(466,149)"/>
<path d="M0 0 C1.65 0.33 3.3 0.66 5 1 C4.67 2.65 4.34 4.3 4 6 C2.35 5.67 0.7 5.34 -1 5 C-0.67 3.35 -0.34 1.7 0 0 Z " fill="#EBEFF5" transform="translate(478,75)"/>
<path d="M0 0 C2.125 0.375 2.125 0.375 4 1 C4 2.65 4 4.3 4 6 C2.35 6 0.7 6 -1 6 C-1.625 4.125 -1.625 4.125 -2 2 C-1.34 1.34 -0.68 0.68 0 0 Z " fill="#EBEFF6" transform="translate(236,620)"/>
<path d="M0 0 C1.65 0 3.3 0 5 0 C5.625 1.875 5.625 1.875 6 4 C5.34 4.66 4.68 5.32 4 6 C1.875 5.625 1.875 5.625 0 5 C0 3.35 0 1.7 0 0 Z " fill="#EBEFF5" transform="translate(301,618)"/>
<path d="M0 0 C2.125 0.375 2.125 0.375 4 1 C4 2.65 4 4.3 4 6 C2.35 6 0.7 6 -1 6 C-1.625 4.125 -1.625 4.125 -2 2 C-1.34 1.34 -0.68 0.68 0 0 Z " fill="#ECF0F6" transform="translate(406,148)"/>
<path d="M0 0 C0.66 0.33 1.32 0.66 2 1 C-0.97 3.64 -3.94 6.28 -7 9 C-8.32 8.34 -9.64 7.68 -11 7 C-9.21475351 5.80286983 -7.4215972 4.61752721 -5.625 3.4375 C-4.62726562 2.77621094 -3.62953125 2.11492187 -2.6015625 1.43359375 C-1.74304688 0.96050781 -0.88453125 0.48742187 0 0 Z " fill="#373C7B" transform="translate(789,285)"/>
</svg>
